<?xml version="1.0" encoding="utf-8"?>
<!-- Generator: Adobe Illustrator 16.0.0, SVG Export Plug-In . SVG Version: 6.00 Build 0)  -->
<!DOCTYPE svg PUBLIC "-//W3C//DTD SVG 1.1//EN" "http://www.w3.org/Graphics/SVG/1.1/DTD/svg11.dtd">
<svg version="1.1" id="Layer_1" xmlns="http://www.w3.org/2000/svg" xmlns:xlink="http://www.w3.org/1999/xlink" x="0px" y="0px"
	 width="97px" height="97px" viewBox="0 0 97 97" enable-background="new 0 0 97 97" xml:space="preserve">
<g>
	<g>
		<path fill="#002453" d="M32.127,54.75h3.75v-1.102h-3.75V54.75z M32.127,59.379h3.75v-1.098h-3.75V59.379z M32.127,64.016h3.75
			v-1.098h-3.75V64.016z M32.127,68.648h3.75v-1.098h-3.75V68.648z M38.885,53.648h-1.094V68.98h19.082v-1.098H38.885V53.648z
			 M40.303,42.754c-0.27,0-0.492,0.219-0.492,0.496c0,0.273,0.223,0.496,0.492,0.496c0.043,0,0.074-0.016,0.105-0.02l3.906,3.91
			h1.703c0.148,0,0.273-0.121,0.273-0.27c0-0.152-0.125-0.277-0.273-0.277h-1.473l-3.754-3.758c0-0.031,0.016-0.055,0.016-0.082
			C40.807,42.973,40.58,42.754,40.303,42.754 M39.986,31.012v7.016c0,0.023,0,0.051,0.008,0.074l-4.836,4.77
			c-1.223-1.258-1.977-2.965-1.977-4.844C33.182,34.258,36.205,31.172,39.986,31.012 M34.818,43.43
			c0.016,0.012,0.031,0.023,0.047,0.031c1.398,1.355,3.32,2.199,5.438,2.199c0.535,0,1.062-0.051,1.566-0.156l-0.543-0.543
			c-0.332,0.047-0.672,0.078-1.023,0.078c-1.91,0-3.641-0.738-4.918-1.949l4.816-4.75l5.016,4.754
			c-0.77,0.727-1.707,1.281-2.746,1.605l0.484,0.488c1.516-0.547,2.816-1.551,3.719-2.836l-1.691-1.699
			c-0.051,0.008-0.094,0.012-0.148,0.012c-0.465,0-0.844-0.379-0.844-0.848c0-0.461,0.379-0.844,0.844-0.844
			c0.473,0,0.852,0.383,0.852,0.844c0,0.039-0.008,0.086-0.016,0.121l1.531,1.535c0.535-1.035,0.844-2.207,0.844-3.445
			c0-0.172-0.137-0.312-0.309-0.312h-7.125v-7.02c0-0.172-0.137-0.305-0.309-0.305c-4.277,0-7.75,3.422-7.75,7.637
			c0,2.082,0.855,3.973,2.234,5.355C34.795,43.398,34.803,43.414,34.818,43.43 M41.553,29.465v7.328h7.434
			C48.986,32.746,45.654,29.465,41.553,29.465 M55.236,46.691h-8.105v1.402h8.105V46.691z M45.33,39.816
			c0-0.27-0.219-0.492-0.496-0.492c-0.27,0-0.492,0.223-0.492,0.492c0,0.277,0.223,0.5,0.492,0.5c0.039,0,0.07-0.012,0.105-0.02
			l3.902,3.914h1.699c0.152,0,0.277-0.125,0.277-0.277s-0.125-0.273-0.277-0.273h-1.473l-3.754-3.762
			C45.322,39.875,45.33,39.844,45.33,39.816 M55.373,43.258h-3.715v1.402h3.715V43.258z M54.611,55.898h-2.539v10.75h2.539V55.898z
			 M46.334,66.648h2.539v-7.289h-2.539V66.648z M40.596,66.648h2.535v-3.465h-2.535V66.648z M65.99,60.734l-2.02-1.945l-1.523,1.578
			l3.574,3.441l5.789-5.789l-1.559-1.551L65.99,60.734z M67.361,66.352c-3.652,0-6.625-2.973-6.625-6.625
			c0-3.648,2.973-6.621,6.625-6.621c3.648,0,6.621,2.973,6.621,6.621C73.982,63.379,71.01,66.352,67.361,66.352 M65.951,72.938
			H27.717V24.062h25.23v10.379c0,1.469,1.191,2.664,2.656,2.664h10.348v13.93c-4.191,0.676-7.41,4.312-7.41,8.691
			c0,4.383,3.219,8.02,7.41,8.699V72.938z M55.689,24.895l9.441,9.469h-9.441V24.895z M68.697,51.023V34.047L56.006,21.32H24.971
			v54.363h43.727v-7.246c4.227-0.648,7.48-4.301,7.48-8.711C76.178,55.324,72.924,51.672,68.697,51.023"/>
	</g>
</g>
</svg>
