<?xml version="1.0" encoding="utf-8"?>
<!-- Generator: Adobe Illustrator 16.0.0, SVG Export Plug-In . SVG Version: 6.00 Build 0)  -->
<!DOCTYPE svg PUBLIC "-//W3C//DTD SVG 1.1//EN" "http://www.w3.org/Graphics/SVG/1.1/DTD/svg11.dtd">
<svg version="1.1" id="Layer_1" xmlns="http://www.w3.org/2000/svg" xmlns:xlink="http://www.w3.org/1999/xlink" x="0px" y="0px"
	 width="97px" height="97px" viewBox="0 0 97 97" enable-background="new 0 0 97 97" xml:space="preserve">
<g>
	<path fill="#002453" d="M68.811,38.105l-5.527-4.793v-5.887h5.527V38.105z M68.811,73.281H54.088V59.816
		c0-3.102-2.5-5.609-5.59-5.609c-3.082,0-5.586,2.508-5.586,5.609v13.465H28.193V42.305l20.305-17.609l20.312,17.609V73.281z
		 M46.182,66.402c-0.723,0-1.309-0.582-1.309-1.305c0-0.727,0.586-1.312,1.309-1.312c0.719,0,1.301,0.586,1.301,1.312
		C47.482,65.82,46.9,66.402,46.182,66.402 M79.373,47.266l-7.395-6.406V27.398c0.742-0.133,1.305-0.777,1.305-1.555
		c0-0.781-0.562-1.43-1.305-1.562v-0.027H60.107v0.027c-0.746,0.133-1.309,0.781-1.309,1.562c0,0.777,0.562,1.422,1.309,1.555v3.16
		L48.498,20.492L17.631,47.266c-0.664,0.57-0.734,1.578-0.156,2.238c0.57,0.66,1.57,0.734,2.234,0.156l5.309-4.602v28.273h-2.594
		c-0.875,0-1.586,0.711-1.586,1.59c0,0.875,0.711,1.586,1.586,1.586h52.148c0.879,0,1.59-0.711,1.59-1.586
		c0-0.879-0.711-1.59-1.59-1.59h-2.594V45.059l5.312,4.602c0.297,0.262,0.672,0.391,1.035,0.391c0.445,0,0.891-0.184,1.199-0.547
		C80.104,48.844,80.033,47.836,79.373,47.266"/>
</g>
</svg>
