<?xml version="1.0" encoding="utf-8"?>
<!-- Generator: Adobe Illustrator 16.0.0, SVG Export Plug-In . SVG Version: 6.00 Build 0)  -->
<!DOCTYPE svg PUBLIC "-//W3C//DTD SVG 1.1//EN" "http://www.w3.org/Graphics/SVG/1.1/DTD/svg11.dtd">
<svg version="1.1" id="Layer_1" xmlns="http://www.w3.org/2000/svg" xmlns:xlink="http://www.w3.org/1999/xlink" x="0px" y="0px"
	 width="97px" height="97px" viewBox="0 0 97 97" enable-background="new 0 0 97 97" xml:space="preserve">
<g>
	<g>
		<path fill="#002453" d="M66.682,63.969h-3.715V40.922h3.715V63.969z M43.779,63.969h-8.266V40.922h8.266V63.969z M52.299,40.922
			h8.27v23.047h-8.27V40.922z M49.896,63.969h-3.715V40.922h3.715V63.969z M29.4,40.922h3.715v23.047H29.4V40.922z M23.373,40.922
			h3.629v23.047h-2.289c-0.668,0-1.203,0.539-1.203,1.199c0,0.664,0.535,1.203,1.203,1.203h47.574c0.664,0,1.199-0.539,1.199-1.203
			c0-0.66-0.535-1.199-1.199-1.199h-3.203V40.922h4.543c0.66,0,1.199-0.539,1.199-1.199c0-0.664-0.539-1.203-1.199-1.203H23.373
			c-0.664,0-1.199,0.539-1.199,1.203C22.174,40.383,22.709,40.922,23.373,40.922"/>
		<path fill="#002453" d="M48.498,23.922l19.77,10.512H28.732L48.498,23.922z M23.92,36.84h49.16c0.555,0,1.027-0.375,1.16-0.91
			c0.141-0.535-0.113-1.09-0.598-1.352L49.061,21.504c-0.352-0.188-0.773-0.188-1.121,0L23.354,34.578
			c-0.488,0.262-0.734,0.816-0.602,1.352C22.889,36.465,23.365,36.84,23.92,36.84"/>
		<path fill="#002453" d="M21.967,71.004h53.062c0.664,0,1.199-0.543,1.199-1.199c0-0.668-0.535-1.207-1.199-1.207H21.967
			c-0.664,0-1.199,0.539-1.199,1.207C20.768,70.461,21.303,71.004,21.967,71.004"/>
		<path fill="#002453" d="M78.092,73.234H18.908c-0.66,0-1.195,0.539-1.195,1.199c0,0.664,0.535,1.207,1.195,1.207h59.184
			c0.664,0,1.199-0.543,1.199-1.207C79.291,73.773,78.756,73.234,78.092,73.234"/>
	</g>
</g>
</svg>
