<?xml version="1.0" encoding="utf-8"?>
<!-- Generator: Adobe Illustrator 16.0.0, SVG Export Plug-In . SVG Version: 6.00 Build 0)  -->
<!DOCTYPE svg PUBLIC "-//W3C//DTD SVG 1.1//EN" "http://www.w3.org/Graphics/SVG/1.1/DTD/svg11.dtd">
<svg version="1.1" id="Layer_1" xmlns="http://www.w3.org/2000/svg" xmlns:xlink="http://www.w3.org/1999/xlink" x="0px" y="0px"
	 width="97px" height="97px" viewBox="0 0 97 97" enable-background="new 0 0 97 97" xml:space="preserve">
<g>
	<path fill="#002453" d="M60.65,39.457h-20.68c-0.613,0-1.117,0.5-1.117,1.121s0.504,1.121,1.117,1.121h20.68v21.73
		c0,5.516-4.469,10.004-9.957,10.004h-4.387c-5.492,0-9.957-4.488-9.957-10.004V35.332H60.65V39.457z M41.701,23.57h13.602v8.961
		H41.701V23.57z M62.053,32.531H58.1V22.168c0-0.77-0.629-1.398-1.398-1.398H40.299c-0.773,0-1.398,0.629-1.398,1.398v10.363h-3.949
		c-0.773,0-1.402,0.625-1.402,1.398v29.5c0,7.059,5.723,12.805,12.758,12.805h4.387c7.039,0,12.754-5.746,12.754-12.805v-29.5
		C63.447,33.156,62.822,32.531,62.053,32.531 M44.287,29.926h2.25v-2.582h-2.25V29.926z M50.139,29.926h2.25v-2.582h-2.25V29.926z"
		/>
</g>
</svg>
