<?xml version="1.0" encoding="utf-8"?>
<!-- Generator: Adobe Illustrator 16.0.0, SVG Export Plug-In . SVG Version: 6.00 Build 0)  -->
<!DOCTYPE svg PUBLIC "-//W3C//DTD SVG 1.1//EN" "http://www.w3.org/Graphics/SVG/1.1/DTD/svg11.dtd">
<svg version="1.1" id="Layer_1" xmlns="http://www.w3.org/2000/svg" xmlns:xlink="http://www.w3.org/1999/xlink" x="0px" y="0px"
	 width="97px" height="97px" viewBox="0 0 97 97" enable-background="new 0 0 97 97" xml:space="preserve">
<g>
	<path fill="#002453" d="M65.643,39.119v5.812c0,0.461-0.367,0.828-0.82,0.828c-0.457,0-0.82-0.367-0.82-0.828v-5.812
		c-1.773,0.383-3.102,1.957-3.102,3.84c0,2.164,1.754,3.918,3.922,3.918c2.164,0,3.926-1.754,3.926-3.918
		C68.748,41.076,67.416,39.502,65.643,39.119 M73.092,64.443c0,2.582-2.102,4.68-4.68,4.68H28.943c-2.582,0-4.684-2.098-4.684-4.68
		V37.643c0-2.582,2.102-4.68,4.684-4.68h39.469c2.578,0,4.68,2.098,4.68,4.68V64.443z M69.248,73.908H28.104l-0.398-2.152
		c0.402,0.07,0.812,0.113,1.238,0.113h39.469c0.422,0,0.836-0.043,1.234-0.113L69.248,73.908z M68.412,30.217h-7.219l8.293-12.016
		c0.348-0.496,0.219-1.18-0.281-1.523c-0.5-0.348-1.18-0.223-1.52,0.273l-8.48,12.277l-8.477-12.277
		c-0.34-0.496-1.023-0.617-1.527-0.273c-0.496,0.344-0.621,1.027-0.277,1.523l8.293,12.016H28.943c-4.098,0-7.426,3.328-7.426,7.426
		v26.801c0,2.508,1.254,4.727,3.164,6.074l1.137,6.137h45.707l1.141-6.137c1.914-1.348,3.172-3.566,3.172-6.074V37.643
		C75.838,33.545,72.502,30.217,68.412,30.217 M64.045,61.1c-0.152,0.156-0.367,0.238-0.578,0.238c-0.215,0-0.418-0.082-0.582-0.238
		c-0.324-0.324-0.324-0.844,0-1.168l4.066-4.066c-1.52-0.984-3.57-0.812-4.898,0.516c-1.535,1.531-1.535,4.023,0,5.551
		c1.531,1.531,4.012,1.531,5.543,0c1.328-1.332,1.508-3.383,0.523-4.906L64.045,61.1z M55.721,38.369H31.182
		c-0.711,0-1.285,0.574-1.285,1.289v22.77c0,0.711,0.574,1.289,1.285,1.289h24.539c0.711,0,1.289-0.578,1.289-1.289v-22.77
		C57.01,38.943,56.432,38.369,55.721,38.369"/>
</g>
</svg>
