<?xml version="1.0" encoding="utf-8"?>
<!-- Generator: Adobe Illustrator 16.0.0, SVG Export Plug-In . SVG Version: 6.00 Build 0)  -->
<!DOCTYPE svg PUBLIC "-//W3C//DTD SVG 1.1//EN" "http://www.w3.org/Graphics/SVG/1.1/DTD/svg11.dtd">
<svg version="1.1" id="Layer_1" xmlns="http://www.w3.org/2000/svg" xmlns:xlink="http://www.w3.org/1999/xlink" x="0px" y="0px"
	 width="97px" height="97px" viewBox="0 0 97 97" enable-background="new 0 0 97 97" xml:space="preserve">
<g>
	<path fill="#002453" d="M46.885,76.125c-1.422,0-2.609-0.219-3.355-0.59c-2.332-0.609-4.207-1.207-5.855-1.73
		c-4.184-1.328-6.711-2.129-11.707-1.492c-0.637,0.082-1.219-0.367-1.301-1.008c-0.086-0.637,0.367-1.223,1-1.309
		c5.508-0.703,8.375,0.211,12.711,1.59c1.66,0.527,3.531,1.121,5.875,1.73c0.109,0.027,0.211,0.07,0.309,0.125
		c1.047,0.629,5.848,0.648,9.496-1.652l18.895-11.941c0.531-0.273,0.594-0.664,0.594-0.875c0-0.324-0.156-0.75-0.602-0.977
		c-0.883-0.453-2.426,0.023-4.133,1.258c-0.418,0.309-0.988,0.301-1.398-0.02c-0.406-0.316-0.555-0.867-0.367-1.352
		c0.332-0.836,0.324-1.555-0.016-1.828c-0.422-0.336-1.516-0.262-2.922,0.703l-1.207,0.82c-0.355,0.246-0.816,0.273-1.199,0.074
		c-0.379-0.199-0.621-0.594-0.621-1.023c0-0.48-0.094-0.828-0.242-0.914c-0.234-0.141-1.16-0.145-3.02,0.836l-7.113,3.785
		c-0.57,0.305-1.273,0.09-1.574-0.477c-0.309-0.574-0.09-1.277,0.477-1.578l7.125-3.789c2.32-1.234,4.102-1.492,5.301-0.777
		c0.324,0.188,0.68,0.5,0.949,0.992c2.074-1.352,4.168-1.531,5.496-0.469c0.59,0.469,0.961,1.121,1.086,1.879
		c2.184-0.977,3.664-0.59,4.438-0.195c1.16,0.59,1.875,1.758,1.875,3.051c-0.004,1.254-0.664,2.336-1.773,2.895L55.295,73.754
		C52.623,75.449,49.396,76.125,46.885,76.125"/>
	<path fill="#002453" d="M48.572,67.211c-3.914,0-7.328-1.52-11.207-3.508c-0.574-0.293-0.801-0.992-0.508-1.562
		c0.297-0.582,1-0.805,1.57-0.508c6.805,3.48,10.691,4.465,17.133,1.512c0.469-0.18,1.125-0.52,1.035-1.074
		c-0.047-0.324-0.332-0.613-0.617-0.633c-1.562-0.094-2.824-0.117-3.898-0.133c-4.355-0.086-5.988-0.113-11.477-4.18l-4.699-3.488
		c-0.508-0.371-2.555-0.664-4.5,0.121l-8.68,3.531c-0.598,0.242-1.273-0.051-1.52-0.641c-0.242-0.602,0.043-1.277,0.645-1.52
		l8.68-3.527c2.363-0.965,5.332-0.887,6.762,0.168l4.699,3.484c4.891,3.621,6.004,3.641,10.137,3.715
		c1.098,0.023,2.395,0.051,3.992,0.145c1.395,0.082,2.559,1.18,2.777,2.602c0.188,1.207-0.348,2.777-2.43,3.582
		C53.502,66.648,50.947,67.211,48.572,67.211"/>
	<path fill="#002453" d="M48.498,30.656c-0.641,0-1.168-0.52-1.168-1.164v-3.004c0-0.645,0.527-1.168,1.168-1.168
		c0.645,0,1.168,0.523,1.168,1.168v3.004C49.666,30.137,49.143,30.656,48.498,30.656"/>
	<path fill="#002453" d="M48.498,46.781c-0.641,0-1.168-0.523-1.168-1.168v-3.004c0-0.645,0.527-1.168,1.168-1.168
		c0.645,0,1.168,0.523,1.168,1.168v3.004C49.666,46.258,49.143,46.781,48.498,46.781"/>
	<path fill="#002453" d="M48.498,23.203c-7.082,0-12.844,5.766-12.844,12.848s5.762,12.844,12.844,12.844
		c7.086,0,12.848-5.762,12.848-12.844S55.584,23.203,48.498,23.203 M48.498,51.227c-8.363,0-15.176-6.809-15.176-15.176
		s6.812-15.176,15.176-15.176c8.371,0,15.176,6.809,15.176,15.176S56.869,51.227,48.498,51.227"/>
	<path fill="#002453" d="M49.1,43.297c-0.367,0-0.746-0.02-1.137-0.062c-1.297-0.148-2.543-0.57-3.871-1.008l-0.238-0.078
		c-0.613-0.207-0.945-0.867-0.742-1.477c0.207-0.613,0.859-0.938,1.473-0.734l0.246,0.078c1.254,0.418,2.34,0.777,3.402,0.898
		c2.141,0.25,3.402-0.391,3.859-1.074c0.273-0.391,0.301-0.832,0.086-1.238c-0.355-0.672-1.492-1.387-3.605-1.387
		c-0.023,0-0.043,0-0.066,0c-2.77,0-4.863-0.953-5.75-2.609c-0.613-1.16-0.531-2.512,0.223-3.621
		c1.109-1.633,3.402-2.418,6.125-2.113c1.309,0.141,2.562,0.562,3.902,1.008l0.219,0.078c0.613,0.203,0.945,0.863,0.742,1.469
		c-0.203,0.613-0.859,0.941-1.473,0.742l-0.23-0.078c-1.266-0.422-2.363-0.789-3.426-0.906c-2.18-0.25-3.453,0.414-3.93,1.113
		c-0.188,0.277-0.355,0.711-0.094,1.211c0.352,0.672,1.457,1.332,3.715,1.375c2.789,0.012,4.816,0.949,5.707,2.625
		c0.621,1.172,0.543,2.531-0.219,3.645C53.084,42.531,51.287,43.297,49.1,43.297"/>
</g>
</svg>
