<?xml version="1.0" encoding="utf-8"?>
<!-- Generator: Adobe Illustrator 16.0.0, SVG Export Plug-In . SVG Version: 6.00 Build 0)  -->
<!DOCTYPE svg PUBLIC "-//W3C//DTD SVG 1.1//EN" "http://www.w3.org/Graphics/SVG/1.1/DTD/svg11.dtd">
<svg version="1.1" id="Layer_1" xmlns="http://www.w3.org/2000/svg" xmlns:xlink="http://www.w3.org/1999/xlink" x="0px" y="0px"
	 width="29px" height="29px" viewBox="0 0 29 29" enable-background="new 0 0 29 29" xml:space="preserve">
<g>
	<g>
		<defs>
			<path id="SVGID_1_" d="M0.324,14.501c0,7.834,6.343,14.176,14.172,14.176c7.834,0,14.184-6.342,14.184-14.176
				c0-7.83-6.35-14.176-14.184-14.176C6.667,0.325,0.324,6.671,0.324,14.501"/>
		</defs>
		<clipPath id="SVGID_2_">
			<use xlink:href="#SVGID_1_"  overflow="visible"/>
		</clipPath>
		<g clip-path="url(#SVGID_2_)">
			<path fill="#FFFFFF" d="M14.5,0.325c-7.833,0-14.18,6.347-14.18,14.176c0,7.834,6.347,14.181,14.18,14.181
				c7.83,0,14.18-6.347,14.18-14.181C28.68,6.671,22.33,0.325,14.5,0.325"/>
		</g>
		<g clip-path="url(#SVGID_2_)">
			<polygon fill="#000100" points="19.323,8.818 19.998,8.404 21.276,10.132 20.594,10.546 			"/>
		</g>
		<g clip-path="url(#SVGID_2_)">
			<polygon fill="#000100" points="20.803,10.888 22.089,12.604 22.756,12.19 21.525,10.45 			"/>
		</g>
		<g clip-path="url(#SVGID_2_)">
			<polygon fill="#000100" points="20.36,8.179 23.125,11.973 23.809,11.559 21.043,7.745 			"/>
		</g>
		<g clip-path="url(#SVGID_2_)">
			<polygon fill="#000100" points="21.421,7.516 22.667,9.276 23.351,8.854 22.072,7.118 			"/>
		</g>
		<g clip-path="url(#SVGID_2_)">
			<polygon fill="#000100" points="22.908,9.618 24.146,11.318 24.846,10.9 23.575,9.184 			"/>
		</g>
		<g clip-path="url(#SVGID_2_)">
			<polygon fill="#000100" points="22.771,16.845 21.51,18.564 20.834,18.146 22.072,16.418 			"/>
		</g>
		<g clip-path="url(#SVGID_2_)">
			<polygon fill="#000100" points="23.784,17.463 22.53,19.184 21.848,18.766 23.085,17.037 			"/>
		</g>
		<g clip-path="url(#SVGID_2_)">
			<polygon fill="#000100" points="24.83,18.106 23.575,19.831 22.893,19.408 24.13,17.676 			"/>
		</g>
		<g clip-path="url(#SVGID_2_)">
			<polygon fill="#000100" points="23.351,20.172 22.089,21.893 21.413,21.475 22.651,19.738 			"/>
		</g>
		<g clip-path="url(#SVGID_2_)">
			<polygon fill="#000100" points="22.313,19.529 21.052,21.254 20.376,20.831 21.614,19.099 			"/>
		</g>
		<g clip-path="url(#SVGID_2_)">
			<polygon fill="#000100" points="21.276,18.895 20.022,20.614 19.339,20.2 20.577,18.468 			"/>
		</g>
		<g clip-path="url(#SVGID_2_)">
			<polygon fill="#000100" points="6.923,16.418 9.673,20.217 8.985,20.631 6.232,16.845 			"/>
		</g>
		<g clip-path="url(#SVGID_2_)">
			<polygon fill="#000100" points="4.846,17.688 7.595,21.482 6.903,21.9 4.154,18.114 			"/>
		</g>
		<g clip-path="url(#SVGID_2_)">
			<polygon fill="#000100" points="6.71,19.537 7.949,21.258 8.62,20.848 7.37,19.119 			"/>
		</g>
		<g clip-path="url(#SVGID_2_)">
			<polygon fill="#000100" points="5.228,17.472 6.465,19.195 7.137,18.785 5.891,17.049 			"/>
		</g>
		<g clip-path="url(#SVGID_2_)">
			<polygon fill="#000100" points="9.661,8.826 6.903,12.604 6.244,12.198 8.974,8.388 			"/>
		</g>
		<g clip-path="url(#SVGID_2_)">
			<polygon fill="#000100" points="8.64,8.17 5.878,11.953 5.219,11.551 7.949,7.736 			"/>
		</g>
		<g clip-path="url(#SVGID_2_)">
			<polygon fill="#000100" points="7.595,7.536 4.837,11.322 4.174,10.916 6.908,7.102 			"/>
		</g>
		<g clip-path="url(#SVGID_2_)">
			<path fill="#2B3F73" d="M18.736,14.653c-0.707-1.161-2.194-1.515-3.239-0.992c-1.198,0.582-1.198,2.006-3.075,1.97
				c-1.414-0.032-2.833-1.162-2.371-3.316c-0.33,0.659-0.515,1.403-0.515,2.19c0,2.737,2.251,4.96,4.979,4.96
				c1.897,0,3.546-1.073,4.373-2.645C19.05,16.233,19.162,15.349,18.736,14.653"/>
		</g>
		<g clip-path="url(#SVGID_2_)">
			<path fill="#B8283B" d="M14.516,9.537c-1.945,0-3.653,1.133-4.469,2.773c-0.462,2.158,0.965,3.292,2.375,3.324
				c1.877,0.036,1.877-1.392,3.079-1.978c1.037-0.522,2.528-0.168,3.235,0.997c0.426,0.7,0.313,1.576,0.152,2.171
				c0.37-0.691,0.579-1.483,0.579-2.323C19.468,11.76,17.249,9.537,14.516,9.537"/>
		</g>
	</g>
	<g>
		<g>
			<path fill="#172852" d="M14.5,28.838c-7.906,0-14.337-6.431-14.337-14.337c0-7.906,6.431-14.339,14.337-14.339
				c7.906,0,14.337,6.433,14.337,14.339C28.837,22.407,22.406,28.838,14.5,28.838z M14.5,0.479c-7.729,0-14.02,6.291-14.02,14.021
				c0,7.733,6.291,14.023,14.02,14.023c7.733,0,14.02-6.29,14.02-14.023C28.52,6.77,22.233,0.479,14.5,0.479z"/>
		</g>
	</g>
</g>
</svg>
