<?xml version="1.0" encoding="utf-8"?>
<!-- Generator: Adobe Illustrator 16.0.0, SVG Export Plug-In . SVG Version: 6.00 Build 0)  -->
<!DOCTYPE svg PUBLIC "-//W3C//DTD SVG 1.1//EN" "http://www.w3.org/Graphics/SVG/1.1/DTD/svg11.dtd">
<svg version="1.1" id="Layer_1" xmlns="http://www.w3.org/2000/svg" xmlns:xlink="http://www.w3.org/1999/xlink" x="0px" y="0px"
	 width="29px" height="29px" viewBox="0 0 29 29" enable-background="new 0 0 29 29" xml:space="preserve">
<g>
	<g>
		<defs>
			<path id="SVGID_1_" d="M0.322,14.501c0,7.834,6.347,14.176,14.176,14.176c7.832,0,14.182-6.342,14.182-14.176
				c0-7.83-6.35-14.176-14.182-14.176C6.668,0.325,0.322,6.671,0.322,14.501"/>
		</defs>
		<clipPath id="SVGID_2_">
			<use xlink:href="#SVGID_1_"  overflow="visible"/>
		</clipPath>
		<g clip-path="url(#SVGID_2_)">
			<path fill="#B7282E" d="M14.498,0.337c-2.476,0-4.807,0.639-6.829,1.752h13.664C19.307,0.976,16.976,0.337,14.498,0.337"/>
		</g>
		<g clip-path="url(#SVGID_2_)">
			<path fill="#B7282E" d="M14.498,28.693c2.566,0,4.97-0.684,7.044-1.873H7.464C9.538,28.01,11.934,28.693,14.498,28.693"/>
		</g>
		<g clip-path="url(#SVGID_2_)">
			<path fill="#FFFFFF" d="M7.464,26.82h14.078c1.117-0.647,2.154-1.435,3.055-2.355H4.401C5.31,25.386,6.335,26.173,7.464,26.82"/>
		</g>
		<g clip-path="url(#SVGID_2_)">
			<path fill="#FFFFFF" d="M24.412,4.376c-0.917-0.893-1.954-1.66-3.079-2.283H7.665C6.54,2.716,5.503,3.484,4.594,4.376H24.412z"/>
		</g>
		<g clip-path="url(#SVGID_2_)">
			<path fill="#B7282E" d="M2.766,6.555h23.471c-0.538-0.784-1.149-1.511-1.824-2.174H4.594C3.915,5.043,3.3,5.771,2.766,6.555"/>
		</g>
		<g clip-path="url(#SVGID_2_)">
			<path fill="#B7282E" d="M4.401,24.465h20.195c0.61-0.615,1.165-1.29,1.656-2.014h-23.5C3.244,23.175,3.794,23.85,4.401,24.465"/>
		</g>
		<g clip-path="url(#SVGID_2_)">
			<path fill="#FFFFFF" d="M2.753,22.455h23.491c0.507-0.751,0.949-1.547,1.303-2.388H1.451C1.809,20.908,2.247,21.704,2.753,22.455
				"/>
		</g>
		<g clip-path="url(#SVGID_2_)">
			<path fill="#FFFFFF" d="M1.459,8.946h26.08c-0.354-0.84-0.796-1.64-1.303-2.388H2.762C2.255,7.307,1.817,8.106,1.459,8.946"/>
		</g>
		<g clip-path="url(#SVGID_2_)">
			<path fill="#B7282E" d="M1.451,20.063h26.104c0.306-0.731,0.555-1.499,0.739-2.287H0.708C0.893,18.564,1.138,19.332,1.451,20.063
				"/>
		</g>
		<g clip-path="url(#SVGID_2_)">
			<path fill="#B7282E" d="M0.732,11.129h27.539c-0.186-0.756-0.435-1.483-0.731-2.183H1.459C1.162,9.646,0.917,10.373,0.732,11.129
				"/>
		</g>
		<g clip-path="url(#SVGID_2_)">
			<path fill="#FFFFFF" d="M0.37,13.384h28.262c-0.064-0.772-0.185-1.523-0.361-2.255H0.732C0.555,11.86,0.435,12.612,0.37,13.384"
				/>
		</g>
		<g clip-path="url(#SVGID_2_)">
			<path fill="#FFFFFF" d="M0.704,17.776h27.59c0.177-0.739,0.298-1.503,0.346-2.286H0.358C0.418,16.273,0.527,17.037,0.704,17.776"
				/>
		</g>
		<g clip-path="url(#SVGID_2_)">
			<path fill="#B7282E" d="M0.322,14.513c0,0.33,0.016,0.655,0.04,0.977H28.64c0.024-0.322,0.04-0.647,0.04-0.977
				c0-0.382-0.023-0.756-0.048-1.129H0.37C0.342,13.757,0.322,14.131,0.322,14.513"/>
		</g>
		<g clip-path="url(#SVGID_2_)">
			<path fill="#333260" d="M17.876,0.743c-1.093-0.269-2.196-0.422-3.362-0.422c-7.83,0-14.192,6.371-14.192,14.196
				c0,0.33,0.016,0.651,0.04,0.973h17.522L17.876,0.743z"/>
		</g>
		<g clip-path="url(#SVGID_2_)">
			<path fill="#FFFFFF" d="M8.976,1.43l0.402,0.358L9.237,2.411l0.474-0.418l0.479,0.418l-0.177-0.623l0.475-0.414H9.892
				l-0.073-0.25c0,0-0.108,0.028-0.273,0.097L9.49,1.374H9.136L8.976,1.43z"/>
		</g>
		<g clip-path="url(#SVGID_2_)">
			<polygon fill="#FFFFFF" points="12.34,1.374 12.922,1.374 13.131,0.751 13.316,1.374 13.911,1.374 13.437,1.788 13.622,2.411 
				13.131,1.993 12.661,2.411 12.802,1.788 			"/>
		</g>
		<g clip-path="url(#SVGID_2_)">
			<polygon fill="#FFFFFF" points="15.769,1.374 16.351,1.374 16.566,0.751 16.751,1.374 17.338,1.374 16.863,1.788 17.048,2.411 
				16.566,1.993 16.09,2.411 16.234,1.788 			"/>
		</g>
		<g clip-path="url(#SVGID_2_)">
			<polygon fill="#FFFFFF" points="5.487,4.485 6.065,4.485 6.283,3.862 6.467,4.485 7.058,4.485 6.58,4.899 6.765,5.522 
				6.283,5.104 5.808,5.522 5.945,4.899 			"/>
		</g>
		<g clip-path="url(#SVGID_2_)">
			<polygon fill="#FFFFFF" points="8.911,4.485 9.49,4.485 9.711,3.862 9.892,4.485 10.487,4.485 10.012,4.899 10.193,5.522 
				9.711,5.104 9.233,5.522 9.374,4.899 			"/>
		</g>
		<g clip-path="url(#SVGID_2_)">
			<polygon fill="#FFFFFF" points="12.34,4.485 12.922,4.485 13.131,3.862 13.316,4.485 13.911,4.485 13.437,4.899 13.622,5.522 
				13.131,5.104 12.661,5.522 12.802,4.899 			"/>
		</g>
		<g clip-path="url(#SVGID_2_)">
			<polygon fill="#FFFFFF" points="15.769,4.485 16.351,4.485 16.566,3.862 16.751,4.485 17.338,4.485 16.863,4.899 17.048,5.522 
				16.566,5.104 16.09,5.522 16.234,4.899 			"/>
		</g>
		<g clip-path="url(#SVGID_2_)">
			<path fill="#FFFFFF" d="M3.63,7.495H3.039L2.85,6.873L2.641,7.495H2.183C2.167,7.523,2.151,7.543,2.135,7.568l0.386,0.341
				L2.38,8.532l0.47-0.418l0.49,0.418L3.155,7.909L3.63,7.495z"/>
		</g>
		<g clip-path="url(#SVGID_2_)">
			<polygon fill="#FFFFFF" points="5.487,7.495 6.065,7.495 6.283,6.873 6.467,7.495 7.058,7.495 6.58,7.909 6.765,8.532 
				6.283,8.114 5.808,8.532 5.945,7.909 			"/>
		</g>
		<g clip-path="url(#SVGID_2_)">
			<polygon fill="#FFFFFF" points="8.911,7.495 9.49,7.495 9.711,6.873 9.892,7.495 10.487,7.495 10.012,7.909 10.193,8.532 
				9.711,8.114 9.233,8.532 9.374,7.909 			"/>
		</g>
		<g clip-path="url(#SVGID_2_)">
			<polygon fill="#FFFFFF" points="12.34,7.495 12.922,7.495 13.131,6.873 13.316,7.495 13.911,7.495 13.437,7.909 13.622,8.532 
				13.131,8.114 12.661,8.532 12.802,7.909 			"/>
		</g>
		<g clip-path="url(#SVGID_2_)">
			<polygon fill="#FFFFFF" points="15.769,7.495 16.351,7.495 16.566,6.873 16.751,7.495 17.338,7.495 16.863,7.909 17.048,8.532 
				16.566,8.114 16.09,8.532 16.234,7.909 			"/>
		</g>
		<g clip-path="url(#SVGID_2_)">
			<polygon fill="#FFFFFF" points="2.074,10.639 2.657,10.639 2.87,10.02 3.055,10.639 3.646,10.639 3.171,11.061 3.356,11.675 
				2.87,11.261 2.396,11.675 2.537,11.061 			"/>
		</g>
		<g clip-path="url(#SVGID_2_)">
			<polygon fill="#FFFFFF" points="5.503,10.639 6.082,10.639 6.298,10.02 6.483,10.639 7.074,10.639 6.596,11.061 6.781,11.675 
				6.298,11.261 5.824,11.675 5.961,11.061 			"/>
		</g>
		<g clip-path="url(#SVGID_2_)">
			<polygon fill="#FFFFFF" points="8.927,10.639 9.51,10.639 9.723,10.02 9.908,10.639 10.495,10.639 10.024,11.061 10.209,11.675 
				9.723,11.261 9.249,11.675 9.39,11.061 			"/>
		</g>
		<g clip-path="url(#SVGID_2_)">
			<polygon fill="#FFFFFF" points="12.355,10.639 12.938,10.639 13.147,10.02 13.333,10.639 13.927,10.639 13.453,11.061 
				13.638,11.675 13.147,11.261 12.677,11.675 12.818,11.061 			"/>
		</g>
		<g clip-path="url(#SVGID_2_)">
			<polygon fill="#FFFFFF" points="15.784,10.639 16.363,10.639 16.574,10.02 16.767,10.639 17.354,10.639 16.88,11.061 
				17.064,11.675 16.574,11.261 16.105,11.675 16.25,11.061 			"/>
		</g>
		<g clip-path="url(#SVGID_2_)">
			<polygon fill="#FFFFFF" points="2.074,13.685 2.657,13.685 2.87,13.062 3.055,13.685 3.646,13.685 3.171,14.099 3.356,14.722 
				2.87,14.304 2.396,14.722 2.537,14.099 			"/>
		</g>
		<g clip-path="url(#SVGID_2_)">
			<polygon fill="#FFFFFF" points="5.503,13.685 6.082,13.685 6.298,13.062 6.483,13.685 7.074,13.685 6.596,14.099 6.781,14.722 
				6.298,14.304 5.824,14.722 5.961,14.099 			"/>
		</g>
		<g clip-path="url(#SVGID_2_)">
			<polygon fill="#FFFFFF" points="8.927,13.685 9.51,13.685 9.723,13.062 9.908,13.685 10.495,13.685 10.024,14.099 10.209,14.722 
				9.723,14.304 9.249,14.722 9.39,14.099 			"/>
		</g>
		<g clip-path="url(#SVGID_2_)">
			<polygon fill="#FFFFFF" points="12.355,13.685 12.938,13.685 13.147,13.062 13.333,13.685 13.927,13.685 13.453,14.099 
				13.638,14.722 13.147,14.304 12.677,14.722 12.818,14.099 			"/>
		</g>
		<g clip-path="url(#SVGID_2_)">
			<polygon fill="#FFFFFF" points="15.784,13.685 16.363,13.685 16.574,13.062 16.767,13.685 17.354,13.685 16.88,14.099 
				17.064,14.722 16.574,14.304 16.105,14.722 16.25,14.099 			"/>
		</g>
		<g clip-path="url(#SVGID_2_)">
			<path fill="#FFFFFF" d="M0.507,12.258l0.297,0.273L0.667,13.15l0.47-0.414L1.62,13.15l-0.181-0.619l0.474-0.418H1.323
				l-0.185-0.623l-0.217,0.623H0.527C0.527,12.114,0.523,12.19,0.507,12.258"/>
		</g>
		<g clip-path="url(#SVGID_2_)">
			<polygon fill="#FFFFFF" points="3.771,12.114 4.353,12.114 4.562,11.491 4.747,12.114 5.342,12.114 4.868,12.527 5.053,13.15 
				4.562,12.732 4.088,13.15 4.232,12.527 			"/>
		</g>
		<g clip-path="url(#SVGID_2_)">
			<polygon fill="#FFFFFF" points="7.199,12.114 7.778,12.114 7.995,11.491 8.18,12.114 8.771,12.114 8.296,12.527 8.477,13.15 
				7.995,12.732 7.521,13.15 7.657,12.527 			"/>
		</g>
		<g clip-path="url(#SVGID_2_)">
			<polygon fill="#FFFFFF" points="10.624,12.114 11.21,12.114 11.419,11.491 11.604,12.114 12.199,12.114 11.717,12.527 
				11.901,13.15 11.419,12.732 10.949,13.15 11.09,12.527 			"/>
		</g>
		<g clip-path="url(#SVGID_2_)">
			<polygon fill="#FFFFFF" points="14.052,12.114 14.635,12.114 14.844,11.491 15.028,12.114 15.623,12.114 15.149,12.527 
				15.334,13.15 14.844,12.732 14.374,13.15 14.514,12.527 			"/>
		</g>
		<g clip-path="url(#SVGID_2_)">
			<path fill="#FFFFFF" d="M1.407,9.071h0.506l-0.47,0.414l0.177,0.623L1.162,9.706C1.162,9.706,1.323,9.264,1.407,9.071"/>
		</g>
		<g clip-path="url(#SVGID_2_)">
			<polygon fill="#FFFFFF" points="3.771,9.071 4.353,9.071 4.562,8.448 4.747,9.071 5.342,9.071 4.868,9.485 5.053,10.108 
				4.562,9.69 4.088,10.108 4.232,9.485 			"/>
		</g>
		<g clip-path="url(#SVGID_2_)">
			<polygon fill="#FFFFFF" points="7.199,9.071 7.778,9.071 7.995,8.448 8.18,9.071 8.771,9.071 8.296,9.485 8.477,10.108 
				7.995,9.69 7.521,10.108 7.657,9.485 			"/>
		</g>
		<g clip-path="url(#SVGID_2_)">
			<polygon fill="#FFFFFF" points="10.624,9.071 11.21,9.071 11.419,8.448 11.604,9.071 12.199,9.071 11.717,9.485 11.901,10.108 
				11.419,9.69 10.949,10.108 11.09,9.485 			"/>
		</g>
		<g clip-path="url(#SVGID_2_)">
			<polygon fill="#FFFFFF" points="14.052,9.071 14.635,9.071 14.844,8.448 15.028,9.071 15.623,9.071 15.149,9.485 15.334,10.108 
				14.844,9.69 14.374,10.108 14.514,9.485 			"/>
		</g>
		<g clip-path="url(#SVGID_2_)">
			<polygon fill="#FFFFFF" points="3.807,5.992 4.385,5.992 4.603,5.369 4.787,5.992 5.374,5.992 4.9,6.406 5.085,7.029 
				4.603,6.611 4.128,7.029 4.265,6.406 			"/>
		</g>
		<g clip-path="url(#SVGID_2_)">
			<polygon fill="#FFFFFF" points="7.231,5.992 7.814,5.992 8.027,5.369 8.212,5.992 8.807,5.992 8.328,6.406 8.513,7.029 
				8.027,6.611 7.553,7.029 7.693,6.406 			"/>
		</g>
		<g clip-path="url(#SVGID_2_)">
			<polygon fill="#FFFFFF" points="10.66,5.992 11.242,5.992 11.451,5.369 11.64,5.992 12.231,5.992 11.757,6.406 11.942,7.029 
				11.451,6.611 10.981,7.029 11.122,6.406 			"/>
		</g>
		<g clip-path="url(#SVGID_2_)">
			<polygon fill="#FFFFFF" points="14.088,5.992 14.667,5.992 14.884,5.369 15.068,5.992 15.655,5.992 15.182,6.406 15.366,7.029 
				14.884,6.611 14.41,7.029 14.546,6.406 			"/>
		</g>
		<g clip-path="url(#SVGID_2_)">
			<polygon fill="#FFFFFF" points="7.231,2.95 7.814,2.95 8.027,2.327 8.212,2.95 8.807,2.95 8.328,3.363 8.513,3.986 8.027,3.568 
				7.553,3.986 7.693,3.363 			"/>
		</g>
		<g clip-path="url(#SVGID_2_)">
			<polygon fill="#FFFFFF" points="10.66,2.95 11.242,2.95 11.451,2.327 11.64,2.95 12.231,2.95 11.757,3.363 11.942,3.986 
				11.451,3.568 10.981,3.986 11.122,3.363 			"/>
		</g>
		<g clip-path="url(#SVGID_2_)">
			<polygon fill="#FFFFFF" points="14.088,2.95 14.667,2.95 14.884,2.327 15.068,2.95 15.655,2.95 15.182,3.363 15.366,3.986 
				14.884,3.568 14.41,3.986 14.546,3.363 			"/>
		</g>
	</g>
	<g>
		<g>
			<path fill="#172852" d="M14.498,28.838c-7.904,0-14.335-6.431-14.335-14.337c0-7.906,6.431-14.339,14.335-14.339
				c7.908,0,14.339,6.433,14.339,14.339C28.837,22.407,22.406,28.838,14.498,28.838z M14.498,0.479
				C6.769,0.479,0.48,6.77,0.48,14.501c0,7.733,6.289,14.023,14.018,14.023c7.731,0,14.025-6.29,14.025-14.023
				C28.523,6.77,22.229,0.479,14.498,0.479z"/>
		</g>
	</g>
</g>
</svg>
