<?xml version="1.0" encoding="utf-8"?>
<!-- Generator: Adobe Illustrator 16.0.0, SVG Export Plug-In . SVG Version: 6.00 Build 0)  -->
<!DOCTYPE svg PUBLIC "-//W3C//DTD SVG 1.1//EN" "http://www.w3.org/Graphics/SVG/1.1/DTD/svg11.dtd">
<svg version="1.1" id="Layer_1" xmlns="http://www.w3.org/2000/svg" xmlns:xlink="http://www.w3.org/1999/xlink" x="0px" y="0px"
	 width="220px" height="244px" viewBox="0 0 220 244" enable-background="new 0 0 220 244" xml:space="preserve">
<g>
	<path fill="#002453" d="M132.891,94.832v7.947c0,0.623-0.504,1.124-1.123,1.124c-0.627,0-1.123-0.5-1.123-1.124v-7.947
		c-2.425,0.517-4.239,2.669-4.239,5.241c0,2.962,2.4,5.363,5.362,5.363c2.958,0,5.359-2.401,5.359-5.363
		C137.127,97.501,135.315,95.349,132.891,94.832 M143.072,129.445c0,3.527-2.873,6.396-6.396,6.396H82.721
		c-3.53,0-6.401-2.869-6.401-6.396V92.813c0-3.532,2.871-6.404,6.401-6.404h53.955c3.523,0,6.396,2.873,6.396,6.404V129.445z
		 M137.818,142.385H81.575l-0.545-2.942c0.549,0.094,1.111,0.15,1.691,0.15h53.955c0.577,0,1.135-0.057,1.688-0.15L137.818,142.385z
		 M136.676,82.657h-9.872l11.341-16.423c0.469-0.676,0.297-1.611-0.386-2.083c-0.684-0.472-1.612-0.297-2.084,0.383L124.09,81.314
		l-11.589-16.781c-0.466-0.68-1.404-0.854-2.084-0.383c-0.684,0.472-0.854,1.408-0.382,2.083l11.336,16.423h-38.65
		c-5.6,0-10.151,4.553-10.151,10.156v36.632c0,3.43,1.717,6.466,4.33,8.301l1.558,8.391h62.479l1.554-8.391
		c2.616-1.835,4.334-4.871,4.334-8.301V92.813C146.824,87.21,142.267,82.657,136.676,82.657 M130.71,124.871
		c-0.22,0.22-0.508,0.33-0.797,0.33c-0.286,0-0.578-0.11-0.794-0.33c-0.443-0.436-0.443-1.148,0-1.591l5.559-5.563
		c-2.075-1.343-4.88-1.107-6.702,0.712c-2.096,2.095-2.092,5.493,0,7.584c2.091,2.097,5.488,2.097,7.581,0
		c1.819-1.822,2.055-4.626,0.712-6.705L130.71,124.871z M119.324,93.802H85.778c-0.966,0-1.758,0.79-1.758,1.758v31.133
		c0,0.969,0.792,1.758,1.758,1.758h33.546c0.973,0,1.758-0.789,1.758-1.758V95.56C121.082,94.592,120.297,93.802,119.324,93.802"/>
</g>
</svg>
