<?xml version="1.0" encoding="utf-8"?>
<!-- Generator: Adobe Illustrator 16.0.0, SVG Export Plug-In . SVG Version: 6.00 Build 0)  -->
<!DOCTYPE svg PUBLIC "-//W3C//DTD SVG 1.1//EN" "http://www.w3.org/Graphics/SVG/1.1/DTD/svg11.dtd">
<svg version="1.1" id="Layer_1" xmlns="http://www.w3.org/2000/svg" xmlns:xlink="http://www.w3.org/1999/xlink" x="0px" y="0px"
	 width="97px" height="97px" viewBox="0 0 97 97" enable-background="new 0 0 97 97" xml:space="preserve">
<g>
	<path fill="#002453" d="M58.158,52.096h4.703v4.672h-4.703V52.096z M57.627,57.299h5.762v-5.734h-5.762V57.299z M58.158,44.811
		h4.703v4.672h-4.703V44.811z M57.627,50.014h5.762v-5.734h-5.762V50.014z M37.65,28.674h5.938v5.895H37.65V28.674z M37.115,35.1h7
		v-6.957h-7V35.1z M58.158,37.525h4.703v4.672h-4.703V37.525z M57.627,42.729h5.762v-5.734h-5.762V42.729z M58.158,59.381h4.703
		v4.672h-4.703V59.381z M57.627,64.584h5.762v-5.738h-5.762V64.584z M37.65,46.67h5.938v5.898H37.65V46.67z M37.115,53.1h7v-6.957
		h-7V53.1z M67.49,37.525h4.699v4.672H67.49V37.525z M66.959,42.729h5.766v-5.734h-5.766V42.729z M75.396,72.463h-6.633v-4.449
		h-7.176v4.449h-6.637V35.092c0-0.398,0.332-0.727,0.742-0.727h18.961c0.41,0,0.742,0.328,0.742,0.727V72.463z M68.229,72.463
		h-6.109v-3.914h6.109V72.463z M47.729,72.463h-8.508v-6.004h-8.734v6.004h-8.512V25.307c0-0.402,0.332-0.727,0.738-0.727H46.99
		c0.41,0,0.738,0.324,0.738,0.727V72.463z M38.689,72.463h-7.668v-5.465h7.668V72.463z M79.322,72.463h-1.797V35.092
		c0-1.574-1.285-2.855-2.871-2.855H55.693c-1.582,0-2.867,1.281-2.867,2.855v37.371h-2.969V35.494V25.307
		c0-1.574-1.285-2.855-2.867-2.855H22.713c-1.582,0-2.863,1.281-2.863,2.855v47.156h-1.797c-0.59,0-1.066,0.48-1.066,1.062
		c0,0.59,0.477,1.07,1.066,1.07h61.27c0.586,0,1.062-0.48,1.062-1.07C80.385,72.943,79.908,72.463,79.322,72.463 M67.49,44.811
		h4.699v4.672H67.49V44.811z M66.959,50.014h5.766v-5.734h-5.766V50.014z M67.49,59.381h4.699v4.672H67.49V59.381z M66.959,64.584
		h5.766v-5.738h-5.766V64.584z M67.49,52.096h4.699v4.672H67.49V52.096z M66.959,57.299h5.766v-5.734h-5.766V57.299z M37.65,37.674
		h5.938v5.898H37.65V37.674z M37.115,44.104h7v-6.961h-7V44.104z M26.123,28.674h5.938v5.895h-5.938V28.674z M25.592,35.1h6.996
		v-6.957h-6.996V35.1z M26.123,55.674h5.938v5.895h-5.938V55.674z M25.592,62.1h6.996v-6.957h-6.996V62.1z M26.123,46.67h5.938
		v5.898h-5.938V46.67z M25.592,53.1h6.996v-6.957h-6.996V53.1z M26.123,37.674h5.938v5.898h-5.938V37.674z M25.592,44.104h6.996
		v-6.961h-6.996V44.104z M37.65,55.674h5.938v5.895H37.65V55.674z M37.115,62.1h7v-6.957h-7V62.1z"/>
</g>
</svg>
