<?xml version="1.0" encoding="utf-8"?>
<!-- Generator: Adobe Illustrator 16.0.0, SVG Export Plug-In . SVG Version: 6.00 Build 0)  -->
<!DOCTYPE svg PUBLIC "-//W3C//DTD SVG 1.1//EN" "http://www.w3.org/Graphics/SVG/1.1/DTD/svg11.dtd">
<svg version="1.1" id="Layer_1" xmlns="http://www.w3.org/2000/svg" xmlns:xlink="http://www.w3.org/1999/xlink" x="0px" y="0px"
	 width="97px" height="97px" viewBox="0 0 97 97" enable-background="new 0 0 97 97" xml:space="preserve">
<g>
	<path fill="#002453" d="M76.729,68.273c-0.332,1.293-1.602,2.598-2.836,2.918c-0.645,0.172-1.172,0.035-1.598-0.414L50.748,48.145
		c-0.02-0.02-0.055-0.031-0.078-0.047c0.875-1.176,1.945-2.184,3.145-3.016l22.477,21.395
		C76.479,66.645,77.021,67.164,76.729,68.273 M45.604,56.668l-3.113,3.121c-0.68,0.672-1.867,0.668-2.535,0L28.057,47.895
		c-0.336-0.336-0.52-0.781-0.52-1.266c0-0.48,0.18-0.93,0.516-1.27l3.125-3.113c0.336-0.34,0.785-0.523,1.27-0.523
		c0.48,0,0.93,0.184,1.262,0.523l11.898,11.895c0.332,0.332,0.52,0.781,0.52,1.262C46.127,55.887,45.939,56.332,45.604,56.668
		 M47.225,30.848l9.941,9.941c-5.164,1.434-9.266,5.359-10.891,10.445l-9.75-9.746C41.666,39.977,45.686,35.98,47.225,30.848
		 M47.947,25.469l3.121-3.113c0.34-0.34,0.785-0.523,1.27-0.523c0.48,0,0.926,0.184,1.266,0.523L65.494,34.25
		c0.699,0.695,0.699,1.832,0,2.527l-3.117,3.121c-0.336,0.336-0.789,0.523-1.266,0.523c-0.48,0-0.934-0.188-1.266-0.523
		L47.947,28.004C47.252,27.301,47.252,26.168,47.947,25.469 M78.033,64.645L56.15,43.812c0.949-0.41,1.934-0.738,2.977-0.914
		c0.199-0.039,0.363-0.117,0.512-0.223c0.469,0.168,0.961,0.27,1.473,0.27l0,0c1.16,0,2.238-0.449,3.055-1.262l3.113-3.125
		c1.688-1.676,1.688-4.414,0-6.098L55.389,20.566c-1.625-1.629-4.484-1.629-6.105,0l-3.117,3.117
		c-1.273,1.277-1.582,3.156-0.926,4.723c-0.004,0.023-0.02,0.039-0.023,0.059c-0.934,5.648-5.352,10.066-11,11
		c-0.062,0.008-0.117,0.047-0.18,0.062c-1.551-0.582-3.441-0.281-4.645,0.93l-3.125,3.117c-0.809,0.812-1.254,1.895-1.254,3.055
		c0,1.156,0.445,2.238,1.254,3.051L38.17,61.574c0.812,0.812,1.895,1.262,3.051,1.262c1.148,0,2.234-0.449,3.055-1.262l3.113-3.113
		c0.812-0.816,1.266-1.902,1.266-3.059c0-0.621-0.145-1.219-0.391-1.77c0.211-1.164,0.59-2.262,1.086-3.297L70.467,72.52
		c0.801,0.836,1.801,1.27,2.906,1.27c0.379,0,0.762-0.047,1.16-0.152c2.125-0.547,4.078-2.535,4.645-4.727
		C79.6,67.262,79.201,65.75,78.033,64.645"/>
	<path fill="#002453" d="M22.33,72.594h29.605c0.695,0,1.266-0.562,1.266-1.258c0-0.699-0.57-1.266-1.266-1.266H22.33
		c-0.695,0-1.266,0.566-1.266,1.266C21.064,72.031,21.635,72.594,22.33,72.594"/>
	<path fill="#002453" d="M56.256,75.133H18.92c-0.699,0-1.262,0.562-1.262,1.262c0,0.695,0.562,1.258,1.262,1.258h37.336
		c0.695,0,1.266-0.562,1.266-1.258C57.521,75.695,56.951,75.133,56.256,75.133"/>
</g>
</svg>
