<?xml version="1.0" encoding="utf-8"?>
<!-- Generator: Adobe Illustrator 16.0.0, SVG Export Plug-In . SVG Version: 6.00 Build 0)  -->
<!DOCTYPE svg PUBLIC "-//W3C//DTD SVG 1.1//EN" "http://www.w3.org/Graphics/SVG/1.1/DTD/svg11.dtd">
<svg version="1.1" id="Layer_1" xmlns="http://www.w3.org/2000/svg" xmlns:xlink="http://www.w3.org/1999/xlink" x="0px" y="0px"
	 width="97px" height="97px" viewBox="0 0 97 97" enable-background="new 0 0 97 97" xml:space="preserve">
<g>
	<g>
		<path fill="#002453" d="M52.164,62.941c-0.27,0.766-1.266,1.395-2.578,1.648v-4.918c0.543,0.211,1.016,0.387,1.305,0.5
			C51.344,60.363,52.793,61.125,52.164,62.941 M46.871,55.652c-0.047-0.016-0.082-0.031-0.105-0.043
			c-2.207-1.176-2.742-1.844-2.488-3.117c0.125-0.672,1.102-1.355,2.594-1.586V55.652z M51.879,57.641
			c-0.762-0.289-1.555-0.602-2.293-0.887v-5.703c1.832,0.527,2.746,1.773,2.805,1.855c0.422,0.617,1.262,0.777,1.879,0.355
			c0.625-0.418,0.785-1.262,0.367-1.887c-0.078-0.109-1.711-2.48-5.051-3.113v-1.535c0-0.746-0.609-1.359-1.363-1.359
			c-0.746,0-1.352,0.613-1.352,1.359v1.438c-2.766,0.301-4.871,1.781-5.266,3.809c-0.707,3.598,2.281,5.184,3.887,6.035
			c0.203,0.105,0.73,0.328,1.379,0.594v5.969c-1.309-0.262-2.629-0.926-3.488-2.191c-0.418-0.625-1.262-0.789-1.887-0.367
			c-0.621,0.422-0.785,1.266-0.363,1.891c1.262,1.859,3.371,3.07,5.738,3.418v1.973c0,0.75,0.605,1.359,1.352,1.359
			c0.754,0,1.363-0.609,1.363-1.359v-1.941c2.582-0.355,4.5-1.668,5.145-3.523C55.867,60.555,53.652,58.336,51.879,57.641
			 M47.973,78.086c-5.988,0-21.516-2.98-21.516-16.559c0-9.203,8.906-19.293,16.141-23.969h10.75
			c7.227,4.68,16.137,14.77,16.137,23.969C69.484,75.105,53.953,78.086,47.973,78.086 M34.547,22.254
			c0.074-0.32,0.285-1.281,2.555-1.195c1.668,0.066,2.832,0.66,3.629,1.855c-0.293,0.715-0.547,1.477-0.746,2.301
			c-0.16,0.668,0.25,1.344,0.922,1.508c0.102,0.023,0.195,0.035,0.297,0.035c0.562,0,1.074-0.379,1.207-0.957
			c0.203-0.832,0.48-1.609,0.789-2.309c0.055-0.098,0.105-0.199,0.137-0.309c1.133-2.383,2.844-3.855,4.637-3.855
			c2.301,0,4.508,2.492,5.48,6.207c0.176,0.664,0.859,1.066,1.527,0.887c0.668-0.176,1.066-0.859,0.895-1.527
			c-0.188-0.699-0.41-1.355-0.664-1.973c0.793-1.18,1.98-1.797,3.629-1.863c2.102-0.078,2.27,0.812,2.34,1.148
			c0.52,2.562-3.109,8.281-8.102,11.008H42.973C37.496,30.199,33.996,24.719,34.547,22.254 M57.633,37.559h0.926
			c1.199,0,2.172-0.969,2.172-2.172c0-1.199-0.973-2.172-2.172-2.172h-1.121c4.008-3.367,6.859-8.215,6.195-11.5
			c-0.203-1.004-1.082-3.32-4.898-3.156c-1.961,0.082-3.574,0.758-4.781,1.965c-1.555-2.324-3.68-3.699-5.98-3.699
			c-2.328,0-4.445,1.371-6,3.699c-1.199-1.203-2.812-1.883-4.766-1.965c-3.918-0.16-4.871,2.148-5.098,3.152
			c-0.738,3.289,2.133,8.047,6.41,11.504h-1.137c-1.203,0-2.172,0.973-2.172,2.172c0,1.203,0.969,2.172,2.172,2.172h0.926
			c-7.109,5.602-14.348,14.988-14.348,23.969c0,15.629,17.328,19.055,24.012,19.055c6.68,0,24.008-3.426,24.008-19.055
			C71.98,52.547,64.742,43.164,57.633,37.559"/>
	</g>
</g>
</svg>
