<?xml version="1.0" encoding="utf-8"?>
<!-- Generator: Adobe Illustrator 16.0.0, SVG Export Plug-In . SVG Version: 6.00 Build 0)  -->
<!DOCTYPE svg PUBLIC "-//W3C//DTD SVG 1.1//EN" "http://www.w3.org/Graphics/SVG/1.1/DTD/svg11.dtd">
<svg version="1.1" id="Layer_1" xmlns="http://www.w3.org/2000/svg" xmlns:xlink="http://www.w3.org/1999/xlink" x="0px" y="0px"
	 width="367px" height="162px" viewBox="0 0 367 162" enable-background="new 0 0 367 162" xml:space="preserve">
<g>
	<g>
		<g>
			<g>
				<path fill="#002453" d="M203.133,143.561c-2.484,0-4.988-0.891-7.039-2.965l-9.168-9.285c-0.582-0.586-0.574-1.531,0.012-2.113
					c0.586-0.578,1.535-0.574,2.113,0.016l9.168,9.281c3.195,3.227,7.988,2.352,10.793-0.359c2.422-2.348,3.598-6.344-0.371-10.527
					c-0.262-0.281-0.395-0.633-0.41-0.988l-15.738-16.246c-0.574-0.594-0.559-1.539,0.031-2.113
					c0.598-0.574,1.531-0.555,2.117,0.031l18.352,18.941c3.133,3.242,8.027,2.273,10.941-0.539
					c2.527-2.441,3.805-6.535-0.195-10.684l-0.008-0.008l-16.695-17.285c-0.047-0.047-0.094-0.102-0.133-0.152l-1.102-1.148
					c-0.574-0.594-0.555-1.539,0.035-2.109c0.602-0.57,1.539-0.555,2.113,0.035l17.938,18.594c4.805,4.98,8.809,1.887,9.922,0.824
					c2.898-2.781,4.023-7.898,0.777-11.324l-35.625-37.508c-0.57-0.602-0.543-1.543,0.055-2.113c0.59-0.566,1.543-0.543,2.109,0.055
					l33.039,34.785l8.891-8.914c15.602-15.648,7.16-36.297-4.805-49.219c-4.219-4.555-8.945-8.367-13.664-11.027
					c-6.871-3.863-26.09-8.281-38.43,3.777l-27.652,27.637c-1.598,1.598-1.691,2.992-0.301,4.391
					c3.109,3.125,13.082,4.707,19.105-1.266l6.965-6.895c5.379-4.906,11.438-3.059,17.297-1.281
					c6.898,2.094,14.031,4.266,22.176-2.199c0.648-0.508,1.586-0.406,2.102,0.246c0.512,0.645,0.406,1.586-0.242,2.098
					c-9.375,7.43-17.988,4.812-24.902,2.715c-5.754-1.746-10.297-3.121-14.371,0.586l-6.922,6.855
					c-7.18,7.109-18.914,5.68-23.324,1.25c-2.555-2.57-2.438-5.871,0.305-8.609l19.305-19.297l-5.156-5.152
					c-15.453-15.109-35.781-8.566-48.133,3.902c-12.074,12.195-18.27,32.145-3.332,47.129l9.203,9.23
					c0.582,0.586,0.578,1.531-0.004,2.113s-1.531,0.578-2.113-0.004l-9.199-9.234c-16.379-16.422-9.758-38.125,3.324-51.336
					c13.777-13.918,36.188-19.734,52.352-3.926l5.172,5.164l6.246-6.238c13.539-13.242,34.504-8.469,42-4.262
					c4.984,2.812,9.957,6.824,14.383,11.605c13.887,14.988,20.738,37.301,4.734,53.355l-8.949,8.973l0.527,0.555
					c4.516,4.762,3.059,11.773-0.879,15.543c-2.125,2.039-5.348,3.418-8.84,2.457c0.867,3.633-0.566,7.094-3.023,9.465
					c-3.098,2.992-7.871,4.395-11.949,2.691c0.625,3.406-0.715,6.57-2.969,8.75C209.004,142.307,206.086,143.561,203.133,143.561z"
					/>
			</g>
			<g>
				<path fill="#002453" d="M176.891,156.248c-2.738,0-5.297-1.055-7.211-2.965l-1.004-1c-2.605-2.613-3.5-6.293-2.691-9.637
					c-3.621,1.379-8.062,0.504-10.867-2.312l-1-0.996c-1.922-1.922-2.977-4.477-2.977-7.207c0-0.836,0.098-1.652,0.285-2.438
					c-3.676,1.57-8.336,0.746-11.234-2.152l-1.004-1c-2.754-2.762-3.602-6.711-2.539-10.203c-3.574,1.242-7.844,0.312-10.57-2.41
					l-1.004-1c-1.918-1.918-2.977-4.477-2.977-7.207c-0.004-2.734,1.055-5.297,2.973-7.219l12.961-12.965
					c3.832-3.832,10.582-3.832,14.426,0l1,1.004c1.914,1.914,2.973,4.48,2.969,7.223c0,0.395-0.023,0.789-0.066,1.176l3.469-3.473
					c3.844-3.832,10.594-3.832,14.426,0l1,1.008c1.914,1.914,2.973,4.48,2.969,7.211c0,2.734-1.059,5.293-2.973,7.211l-0.953,0.953
					c3.066-0.352,6.199,0.707,8.398,2.91l0.996,1.004c1.922,1.918,2.977,4.48,2.977,7.211s-1.055,5.293-2.977,7.215l-0.047,0.043
					c2.988-0.289,6,0.789,8.145,2.93l1.004,1c3.969,3.98,3.969,10.449,0,14.426l-8.684,8.691
					C182.188,155.197,179.625,156.248,176.891,156.248z M184.582,129.178c-1.934,0-3.746,0.746-5.102,2.102l-8.691,8.691
					c-2.809,2.805-2.809,7.379,0,10.203l1.004,0.996c2.699,2.699,7.5,2.699,10.203,0l8.68-8.695c2.809-2.812,2.809-7.383,0-10.195
					l-1-1C188.32,129.924,186.512,129.178,184.582,129.178z M175.48,110.771c-1.934,0-3.742,0.746-5.098,2.102l-14.156,14.152
					c-1.355,1.355-2.102,3.168-2.098,5.102c0,1.934,0.746,3.742,2.098,5.098l1,1c2.707,2.707,7.492,2.707,10.203,0l14.148-14.152
					c1.355-1.355,2.102-3.164,2.102-5.098s-0.746-3.746-2.102-5.098l-0.996-1.008C179.227,111.518,177.414,110.771,175.48,110.771z
					 M167.043,91.479c-1.934,0-3.746,0.75-5.102,2.105l-20.641,20.645c-2.812,2.809-2.812,7.383,0,10.199l1,1
					c2.703,2.699,7.5,2.699,10.195,0l20.641-20.645c1.352-1.352,2.098-3.164,2.098-5.098c0.004-1.938-0.742-3.746-2.098-5.102
					l-1-1.004C170.789,92.225,168.977,91.479,167.043,91.479z M145.242,85.557c-1.934,0-3.746,0.746-5.098,2.098l-12.961,12.965
					c-1.355,1.355-2.098,3.164-2.098,5.098s0.746,3.746,2.098,5.094l1.004,1.004c2.707,2.703,7.496,2.707,10.191,0.004L151.34,98.85
					c1.352-1.348,2.094-3.156,2.098-5.086c0-1.941-0.746-3.758-2.098-5.113l-0.996-1C148.988,86.303,147.176,85.557,145.242,85.557z
					"/>
			</g>
			<g opacity="0.72">
				<g>
					<defs>
						<rect id="SVGID_1_" x="-36.445" y="-28.928" width="439.887" height="194.953"/>
					</defs>
					<clipPath id="SVGID_2_">
						<use xlink:href="#SVGID_1_"  overflow="visible"/>
					</clipPath>
				</g>
			</g>
		</g>
	</g>
</g>
</svg>
