<?xml version="1.0" encoding="utf-8"?>
<!-- Generator: Adobe Illustrator 16.0.0, SVG Export Plug-In . SVG Version: 6.00 Build 0)  -->
<!DOCTYPE svg PUBLIC "-//W3C//DTD SVG 1.1//EN" "http://www.w3.org/Graphics/SVG/1.1/DTD/svg11.dtd">
<svg version="1.1" id="Layer_1" xmlns="http://www.w3.org/2000/svg" xmlns:xlink="http://www.w3.org/1999/xlink" x="0px" y="0px"
	 width="191px" height="197px" viewBox="0 0 191 197" enable-background="new 0 0 191 197" xml:space="preserve">
<g>
	<g>
		<g>
			<path fill="#002453" d="M85.924,112.832l-1.445-2.52l10.219-5.859v-9.559c-11.629-0.668-20.887-10.289-20.887-22.023
				c0-12.168,9.945-22.066,22.176-22.066c12.227,0,22.176,9.898,22.176,22.066c0,11.621-9.082,21.176-20.559,22v9.578l10.215,5.863
				l-1.445,2.52l-10.223-5.867L85.924,112.832z M82.674,86.711c3.461,3.289,8.152,5.312,13.312,5.312
				c4.816,0,9.227-1.762,12.613-4.68v-5.953c-0.004-1.477-1.254-3.203-2.613-3.613c-6.773-2.008-13.934-2.008-20.703,0.004
				c-1.336,0.402-2.605,2.16-2.609,3.613V86.711z M95.639,73.367c3.762,0,7.52,0.543,11.176,1.629
				c2.582,0.777,4.684,3.645,4.688,6.395v2.832c2.359-3.18,3.758-7.109,3.758-11.352c0-10.566-8.648-19.16-19.273-19.16
				s-19.27,8.594-19.27,19.16c0,3.805,1.121,7.355,3.055,10.34v-1.82c0.004-2.746,2.102-5.613,4.676-6.395
				C88.111,73.91,91.877,73.367,95.639,73.367z"/>
		</g>
		<g>
			<path fill="#002453" d="M95.639,76.234c-4.832,0-8.766-3.934-8.766-8.77s3.934-8.77,8.766-8.77c4.84,0,8.77,3.934,8.77,8.77
				S100.479,76.234,95.639,76.234z M95.639,61.602c-3.23,0-5.859,2.629-5.859,5.863s2.629,5.863,5.859,5.863
				c3.234,0,5.867-2.629,5.867-5.863S98.873,61.602,95.639,61.602z"/>
		</g>
		<g>
			<path fill="#002453" d="M69.498,145.918c-12.18,0-22.094-9.875-22.094-22.008c0-12.137,9.914-22.012,22.094-22.012
				c12.184,0,22.098,9.875,22.098,22.012C91.596,136.043,81.682,145.918,69.498,145.918z M56.244,137.715
				c3.449,3.277,8.121,5.301,13.254,5.301c4.797,0,9.188-1.766,12.555-4.672v-5.934c0-1.473-1.238-3.191-2.602-3.605
				c-6.734-2.004-13.867-2.004-20.613,0.004c-1.348,0.41-2.59,2.129-2.594,3.605V137.715z M69.15,124.398
				c3.75,0,7.496,0.539,11.137,1.621c2.582,0.793,4.672,3.652,4.672,6.391v2.809c2.344-3.172,3.73-7.082,3.73-11.309
				c0-10.539-8.609-19.109-19.191-19.109c-10.578,0-19.188,8.57-19.188,19.109c0,3.789,1.113,7.32,3.027,10.293v-1.793
				c0.008-2.738,2.098-5.602,4.664-6.387C61.65,124.941,65.404,124.398,69.15,124.398z M105.088,91.992h-2.902v-9.496h2.902V91.992z
				 M89.568,91.992h-2.906v-9.496h2.906V91.992z M95.873,75.91c-4.824,0-8.746-3.91-8.746-8.715s3.922-8.715,8.746-8.715
				s8.746,3.91,8.746,8.715S100.697,75.91,95.873,75.91z M95.873,61.387c-3.219,0-5.84,2.605-5.84,5.809s2.621,5.809,5.84,5.809
				c3.223,0,5.844-2.605,5.844-5.809S99.096,61.387,95.873,61.387z"/>
		</g>
		<g>
			<path fill="#002453" d="M69.236,126.988c-4.836,0-8.77-3.93-8.77-8.766c0-4.832,3.934-8.77,8.77-8.77
				c4.832,0,8.77,3.938,8.77,8.77C78.006,123.059,74.068,126.988,69.236,126.988z M69.236,112.355c-3.234,0-5.863,2.633-5.863,5.867
				s2.629,5.867,5.863,5.867c3.23,0,5.863-2.633,5.863-5.867S72.467,112.355,69.236,112.355z"/>
		</g>
		<g>
			<path fill="#002453" d="M122.393,145.914c-12.137,0-22.008-9.949-22.008-22.176s9.871-22.176,22.008-22.176
				c12.141,0,22.016,9.949,22.016,22.176S134.533,145.914,122.393,145.914z M109.197,137.664c3.434,3.309,8.086,5.348,13.195,5.348
				c4.781,0,9.152-1.781,12.508-4.711v-5.988c-0.008-1.492-1.242-3.23-2.598-3.645c-6.707-2.023-13.812-2.02-20.523,0
				c-1.316,0.406-2.578,2.18-2.582,3.648V137.664z M122.049,124.25c3.738,0,7.469,0.543,11.098,1.637
				c2.562,0.781,4.648,3.66,4.656,6.422v2.816c2.328-3.191,3.703-7.129,3.703-11.387c0-10.625-8.574-19.273-19.113-19.273
				c-10.535,0-19.105,8.648-19.105,19.273c0,3.816,1.105,7.375,3.008,10.367v-1.793c0.008-2.758,2.09-5.641,4.641-6.426
				C114.572,124.797,118.314,124.25,122.049,124.25z M78.154,143.129h-2.906v-9.57h2.906V143.129z M62.697,143.129h-2.906v-9.57
				h2.906V143.129z M68.971,126.906c-4.805,0-8.719-3.938-8.719-8.773c0-4.832,3.914-8.77,8.719-8.77
				c4.809,0,8.719,3.938,8.719,8.77C77.689,122.969,73.779,126.906,68.971,126.906z M68.971,112.266
				c-3.207,0-5.812,2.637-5.812,5.867c0,3.234,2.605,5.871,5.812,5.871s5.812-2.637,5.812-5.871
				C74.783,114.902,72.178,112.266,68.971,112.266z"/>
		</g>
		<g>
			<path fill="#002453" d="M121.893,126.988c-4.836,0-8.77-3.93-8.77-8.766c0-4.832,3.934-8.77,8.77-8.77
				c4.828,0,8.762,3.938,8.762,8.77C130.654,123.059,126.721,126.988,121.893,126.988z M121.893,112.355
				c-3.234,0-5.871,2.633-5.871,5.867s2.637,5.867,5.871,5.867c3.23,0,5.859-2.633,5.859-5.867S125.123,112.355,121.893,112.355z"/>
		</g>
		<g>
			<path fill="#002453" d="M131.334,142.824h-2.902v-9.516h2.902V142.824z M115.35,142.824h-2.902v-9.516h2.902V142.824z
				 M121.889,126.703c-4.941,0-8.961-3.922-8.961-8.734c0-4.816,4.02-8.73,8.961-8.73s8.969,3.914,8.969,8.73
				C130.857,122.781,126.83,126.703,121.889,126.703z M121.889,112.141c-3.34,0-6.059,2.613-6.059,5.828s2.719,5.832,6.059,5.832
				c3.344,0,6.066-2.617,6.066-5.832S125.232,112.141,121.889,112.141z"/>
		</g>
	</g>
</g>
</svg>
