<?xml version="1.0" encoding="utf-8"?>
<!-- Generator: Adobe Illustrator 16.0.0, SVG Export Plug-In . SVG Version: 6.00 Build 0)  -->
<!DOCTYPE svg PUBLIC "-//W3C//DTD SVG 1.1//EN" "http://www.w3.org/Graphics/SVG/1.1/DTD/svg11.dtd">
<svg version="1.1" id="Layer_1" xmlns="http://www.w3.org/2000/svg" xmlns:xlink="http://www.w3.org/1999/xlink" x="0px" y="0px"
	 width="191px" height="197px" viewBox="0 0 191 197" enable-background="new 0 0 191 197" xml:space="preserve">
<g>
	<g>
		<path fill="#002453" d="M116.795,97.627c-0.082-6.594-1.059-12.805-2.738-18.254c3.453-1.129,6.621-2.539,9.383-4.223
			c4.93,6.207,7.938,13.996,8.129,22.477H116.795z M123.604,121.654c-2.781-1.715-5.98-3.148-9.469-4.293
			c1.629-5.387,2.578-11.496,2.66-17.984h14.773C131.377,107.764,128.432,115.479,123.604,121.654 M103.814,134.822
			c4.078-3.453,7.492-8.977,9.793-15.793c3.258,1.07,6.258,2.402,8.871,3.988C117.643,128.646,111.17,132.822,103.814,134.822
			 M94.83,114.307v-14.93h20.219c-0.078,6.312-0.992,12.258-2.547,17.48C107.104,115.271,101.076,114.385,94.83,114.307
			 M94.83,82.393c6.219-0.074,12.215-0.945,17.586-2.516c1.609,5.281,2.547,11.324,2.633,17.75H94.83V82.393z M94.83,60.885
			c1.52,0.031,3.012,0.152,4.484,0.363c5.281,2.527,9.754,8.711,12.566,16.965c-5.203,1.512-11.012,2.355-17.051,2.426V60.885z
			 M122.311,73.783c-2.598,1.559-5.566,2.875-8.793,3.926c-2.301-6.699-5.672-12.121-9.703-15.531
			C111.088,64.158,117.486,68.26,122.311,73.783 M65.357,123.068c2.602-1.582,5.613-2.938,8.918-4.023
			c2.324,6.941,5.762,12.402,9.805,15.797C76.693,132.865,70.205,128.717,65.357,123.068 M64.24,121.701
			c-3.336-4.277-5.77-9.336-7.004-14.887c4.395,3.41,9.84,6.516,16.09,9.102c0.137,0.492,0.273,0.98,0.418,1.461
			C70.221,118.537,67.006,119.998,64.24,121.701 M75.576,116.811c-0.047,0.012-0.109,0.027-0.16,0.047
			c-0.016-0.043-0.023-0.082-0.039-0.125C75.443,116.76,75.514,116.783,75.576,116.811 M72.861,97.627
			c0.082-6.426,1.023-12.469,2.629-17.75c5.379,1.57,11.379,2.441,17.586,2.516v15.234H72.861z M65.568,73.771
			c4.84-5.543,11.27-9.625,18.527-11.598c-4.027,3.406-7.402,8.832-9.707,15.531C71.146,76.654,68.174,75.334,65.568,73.771
			 M93.076,60.881v19.758c-6.027-0.07-11.84-0.914-17.051-2.426c2.82-8.262,7.301-14.449,12.582-16.973
			C90.068,61.033,91.564,60.916,93.076,60.881 M131.443,81.584c-6.461-14.27-20.832-24.227-37.492-24.227
			c-20.82,0-38.383,15.566-40.852,36.211c-0.113,0.961,0.574,1.832,1.535,1.945c0.938,0.121,1.824-0.566,1.945-1.531
			c0.848-7.113,3.66-13.57,7.852-18.855c2.773,1.695,5.949,3.113,9.418,4.242c-1.68,5.449-2.656,11.664-2.738,18.258h-11.07
			c-0.488,0-0.875,0.387-0.875,0.875c0,0.48,0.387,0.875,0.875,0.875h11.074c0.031,2.867,0.227,5.719,0.598,8.477
			c0.062,0.484,0.508,0.816,0.984,0.758c0.48-0.066,0.816-0.504,0.758-0.988c-0.367-2.684-0.555-5.457-0.594-8.246h20.215v15.801
			c0,0.488,0.395,0.875,0.875,0.875c6.391,0,12.539,0.867,18.023,2.469c-2.809,8.391-7.324,14.676-12.66,17.234
			c-1.473,0.207-2.965,0.328-4.484,0.367v-11.406c0-0.48-0.391-0.875-0.879-0.875c-0.484,0-0.875,0.395-0.875,0.875v11.406
			c-1.5-0.031-2.973-0.148-4.426-0.344c-5.25-2.512-9.832-8.668-12.703-17.254c0.82-0.238,1.664-0.465,2.523-0.672
			c3.758,1.297,7.746,2.414,11.922,3.305l3.215,0.688l-4.09-10.227c-0.359-0.895-1.375-1.336-2.277-0.973
			c-0.895,0.355-1.336,1.375-0.973,2.273l1.625,4.066c-23.859-5.961-41.461-20.141-38.965-31.84
			c0.641-2.992,2.523-5.652,5.609-7.906c0.777-0.57,0.945-1.664,0.375-2.449c-0.566-0.777-1.664-0.945-2.445-0.375
			c-3.797,2.777-6.141,6.145-6.965,10c-1.34,6.285,1.578,12.855,7.582,18.793c2.367,20.824,19.785,36.434,40.867,36.434
			c22.688,0,41.145-18.457,41.145-41.141c0-3.723-0.508-7.328-1.434-10.762c6.523,5.684,9.57,11.77,8.422,17.156
			c-0.605,2.84-2.332,5.379-5.133,7.555c-0.766,0.59-0.898,1.691-0.309,2.457c0.348,0.445,0.859,0.676,1.383,0.676
			c0.375,0,0.754-0.121,1.07-0.371c3.473-2.695,5.629-5.914,6.41-9.578C147.193,97.744,142.068,88.982,131.443,81.584"/>
	</g>
</g>
</svg>
