<?xml version="1.0" encoding="utf-8"?>
<!-- Generator: Adobe Illustrator 16.0.0, SVG Export Plug-In . SVG Version: 6.00 Build 0)  -->
<!DOCTYPE svg PUBLIC "-//W3C//DTD SVG 1.1//EN" "http://www.w3.org/Graphics/SVG/1.1/DTD/svg11.dtd">
<svg version="1.1" id="Layer_1" xmlns="http://www.w3.org/2000/svg" xmlns:xlink="http://www.w3.org/1999/xlink" x="0px" y="0px"
	 width="367px" height="162px" viewBox="0 0 367 162" enable-background="new 0 0 367 162" xml:space="preserve">
<g>
	<g>
		<g>
			<g>
				<path fill="#002453" d="M218.617,152.098h-69.02c-0.781,0-1.418-0.637-1.418-1.418s0.637-1.418,1.418-1.418h33.09V41.871
					c-3.422-0.492-6.289-2.727-7.66-5.773l-47.473,17.301c-0.738,0.254-1.547-0.109-1.82-0.848c-0.266-0.738,0.109-1.555,0.848-1.82
					l47.664-17.371c-0.059-0.438-0.09-0.883-0.09-1.332c0-5.484,4.465-9.945,9.949-9.945c3.531,0,6.641,1.844,8.406,4.621
					l48.156-17.551c0.746-0.258,1.547,0.109,1.82,0.848c0.266,0.738-0.109,1.551-0.848,1.82l-47.961,17.48
					c0.246,0.867,0.379,1.781,0.379,2.727c0,5-3.715,9.156-8.535,9.844v107.391h33.094c0.781,0,1.418,0.637,1.418,1.418
					S219.398,152.098,218.617,152.098z M184.105,24.918c-3.922,0-7.109,3.191-7.109,7.109s3.188,7.109,7.109,7.109
					c3.926,0,7.117-3.191,7.117-7.109S188.031,24.918,184.105,24.918z M141.094,137.641c-10.277,0-19.562-6.039-24.832-16.156l0,0
					c-1.07-2.059-1.535-3.75-1.422-5.68c0-0.051,0.004-0.102,0.012-0.152c0.09-1.219,0.406-2.527,0.945-4.082
					c3.648-10.551,7.352-18.887,10.941-26.941c3.531-7.953,7.188-16.172,10.773-26.512c0.012-0.051,0.027-0.109,0.047-0.16
					c0.801-2.312,3.34-3.539,5.652-2.742c1.395,0.484,2.461,1.629,2.84,3.066l20.289,52.887c0.543,1.664,0.902,3.078,0.988,4.449
					c0.012,0.066,0.016,0.141,0.016,0.207c0,0.027,0,0.047,0,0.07c0.066,1.855-0.387,3.652-1.582,5.891
					C160.441,131.715,151.223,137.641,141.094,137.641z M118.781,120.168c4.77,9.164,13.113,14.637,22.312,14.637
					c9.062,0,17.348-5.367,22.16-14.355c0.648-1.207,1.039-2.195,1.191-3.207h-46.711
					C117.867,118.172,118.215,119.086,118.781,120.168L118.781,120.168z M117.914,114.406h46.387
					c-0.141-0.68-0.352-1.43-0.637-2.289l-20.309-52.965c-0.184-0.664-0.57-1.078-1.074-1.254c-0.797-0.273-1.672,0.113-1.996,0.875
					c-0.012,0.043-0.023,0.082-0.035,0.125c-3.645,10.52-7.344,18.84-10.918,26.879c-3.562,8.004-7.246,16.285-10.852,26.715
					C118.238,113.199,118.047,113.828,117.914,114.406z M227.121,106.777c-10.285,0-19.566-6.043-24.828-16.16
					c-1.07-2.051-1.535-3.742-1.426-5.656c0-0.062,0.004-0.125,0.016-0.184c0.09-1.215,0.406-2.523,0.945-4.078
					c3.645-10.535,7.348-18.863,10.93-26.922c3.535-7.949,7.191-16.172,10.781-26.52c0.012-0.059,0.027-0.113,0.047-0.168
					c0.387-1.117,1.191-2.02,2.258-2.539c1.066-0.516,2.262-0.594,3.395-0.199c1.406,0.484,2.469,1.637,2.844,3.07l20.285,52.883
					c0.539,1.648,0.898,3.055,0.988,4.414c0.012,0.082,0.02,0.164,0.02,0.246c0,0.035,0,0.066-0.004,0.105
					c0.062,1.844-0.395,3.629-1.586,5.859C246.469,100.852,237.25,106.777,227.121,106.777z M203.762,86.383
					c0.141,0.926,0.484,1.84,1.047,2.922c0.004,0,0.004,0,0.004,0c4.762,9.164,13.102,14.633,22.309,14.633
					c9.062,0,17.348-5.363,22.156-14.348c0.648-1.211,1.043-2.199,1.195-3.207H203.762z M203.941,83.547h46.391
					c-0.145-0.684-0.355-1.434-0.641-2.297l-20.309-52.961c-0.18-0.664-0.566-1.082-1.078-1.254
					c-0.395-0.145-0.832-0.117-1.223,0.07c-0.348,0.168-0.621,0.453-0.77,0.805c-0.012,0.039-0.023,0.082-0.035,0.121
					c-3.645,10.531-7.344,18.852-10.926,26.902c-3.555,8-7.23,16.27-10.84,26.695C204.27,82.332,204.078,82.965,203.941,83.547z"/>
			</g>
			<g opacity="0.72">
				<g>
					<defs>
						<rect id="SVGID_1_" x="-36.441" y="-28.926" width="439.883" height="194.953"/>
					</defs>
					<clipPath id="SVGID_2_">
						<use xlink:href="#SVGID_1_"  overflow="visible"/>
					</clipPath>
				</g>
			</g>
		</g>
	</g>
</g>
</svg>
