<?xml version="1.0" encoding="utf-8"?>
<!-- Generator: Adobe Illustrator 16.0.0, SVG Export Plug-In . SVG Version: 6.00 Build 0)  -->
<!DOCTYPE svg PUBLIC "-//W3C//DTD SVG 1.1//EN" "http://www.w3.org/Graphics/SVG/1.1/DTD/svg11.dtd">
<svg version="1.1" id="Layer_1" xmlns="http://www.w3.org/2000/svg" xmlns:xlink="http://www.w3.org/1999/xlink" x="0px" y="0px"
	 width="191px" height="197px" viewBox="0 0 191 197" enable-background="new 0 0 191 197" xml:space="preserve">
<g>
	<g>
		<g>
			<path fill="#002453" d="M95.748,147c-3.633,0-6.59-2.957-6.59-6.59c0-0.586,0.078-1.148,0.219-1.688l-24.809-14.32
				c-1.199,1.266-2.895,2.051-4.773,2.051c-3.629,0-6.586-2.953-6.586-6.59c0-2.918,1.906-5.395,4.539-6.258V83.758
				c-2.633-0.863-4.539-3.344-4.539-6.262c0-3.633,2.957-6.59,6.586-6.59c1.723,0,3.289,0.664,4.461,1.746l25.156-14.523
				c-0.164-0.578-0.254-1.188-0.254-1.816c0-3.633,2.957-6.586,6.59-6.586c3.629,0,6.586,2.953,6.586,6.586
				c0,0.574-0.074,1.125-0.207,1.656l25.426,14.684c1.176-1.082,2.746-1.746,4.461-1.746c3.637,0,6.59,2.957,6.59,6.59
				c0,2.922-1.906,5.402-4.547,6.266v29.844c2.641,0.859,4.547,3.34,4.547,6.258c0,3.637-2.953,6.59-6.59,6.59
				c-1.875,0-3.57-0.785-4.77-2.051l-25.086,14.48c0.113,0.492,0.176,1.004,0.176,1.527C102.334,144.043,99.377,147,95.748,147z
				 M95.748,136.723c-2.031,0-3.684,1.656-3.684,3.688s1.652,3.688,3.684,3.688s3.684-1.656,3.684-3.688
				S97.779,136.723,95.748,136.723z M97.357,134.02c1.406,0.355,2.629,1.16,3.512,2.254l24.887-14.363
				c-0.211-0.645-0.324-1.332-0.324-2.047c0-0.855,0.164-1.68,0.465-2.438l-12.707-7.336l1.453-2.512l12.906,7.449
				c0.977-0.902,2.227-1.512,3.609-1.695V84.027c-1.539-0.199-2.906-0.93-3.922-2l-12.422,7.172l-1.449-2.516l12.383-7.152
				c-0.207-0.641-0.316-1.324-0.316-2.035c0-0.863,0.164-1.688,0.469-2.445l-25.109-14.5c-0.883,1.043-2.074,1.809-3.434,2.152v15.5
				h-2.906v-15.43c-1.434-0.285-2.703-1.043-3.641-2.098L65.916,75.047c0.305,0.758,0.473,1.586,0.473,2.449
				c0,0.715-0.113,1.395-0.324,2.039l14.105,8.137l-1.453,2.516l-14.141-8.16c-1.016,1.07-2.387,1.801-3.922,2v29.305
				c1.383,0.184,2.637,0.793,3.613,1.699l14.172-8.188l1.457,2.512L65.92,117.43c0.301,0.754,0.469,1.578,0.469,2.434
				c0,0.715-0.117,1.402-0.328,2.047l24.664,14.238c0.945-1.109,2.246-1.902,3.727-2.199v-15.902h2.906V134.02z M132.014,116.18
				c-2.027,0-3.684,1.656-3.684,3.684c0,2.035,1.656,3.691,3.684,3.691c2.035,0,3.691-1.656,3.691-3.691
				C135.705,117.836,134.049,116.18,132.014,116.18z M59.795,116.18c-2.027,0-3.68,1.656-3.68,3.684c0,2.035,1.652,3.691,3.68,3.691
				c2.035,0,3.688-1.656,3.688-3.691C63.482,117.836,61.83,116.18,59.795,116.18z M132.014,73.812c-2.027,0-3.684,1.652-3.684,3.684
				s1.656,3.684,3.684,3.684c2.035,0,3.691-1.652,3.691-3.684S134.049,73.812,132.014,73.812z M59.795,73.812
				c-2.027,0-3.68,1.652-3.68,3.684s1.652,3.684,3.68,3.684c2.035,0,3.688-1.652,3.688-3.684S61.83,73.812,59.795,73.812z
				 M95.748,52.633c-2.031,0-3.684,1.652-3.684,3.68c0,2.031,1.652,3.684,3.684,3.684s3.684-1.652,3.684-3.684
				C99.432,54.285,97.779,52.633,95.748,52.633z"/>
		</g>
		<g>
			<path fill="#002453" d="M96.959,119.496c-11.684,0-21.191-9.504-21.191-21.191s9.508-21.195,21.191-21.195
				c11.688,0,21.191,9.508,21.191,21.195S108.646,119.496,96.959,119.496z M84.346,111.535c3.285,3.129,7.727,5.059,12.613,5.059
				c4.559,0,8.734-1.676,11.945-4.449v-5.676c0-1.371-1.188-3.023-2.445-3.406c-6.434-1.922-13.238-1.914-19.676,0
				c-1.246,0.383-2.434,2.039-2.438,3.41V111.535z M96.627,98.719c3.59,0,7.176,0.523,10.668,1.562
				c2.492,0.754,4.508,3.531,4.508,6.188v2.504c2.172-3.004,3.445-6.688,3.445-10.668c0-10.086-8.207-18.289-18.289-18.289
				s-18.285,8.203-18.285,18.289c0,3.547,1.016,6.859,2.766,9.664v-1.5c0.008-2.656,2.027-5.43,4.504-6.188
				C89.439,99.242,93.033,98.719,96.627,98.719z"/>
		</g>
		<g>
			<path fill="#002453" d="M96.627,101.391c-4.645,0-8.426-3.781-8.426-8.426c0-4.648,3.781-8.43,8.426-8.43s8.422,3.781,8.422,8.43
				C105.049,97.609,101.271,101.391,96.627,101.391z M96.627,87.441c-3.047,0-5.523,2.477-5.523,5.523
				c0,3.043,2.477,5.52,5.523,5.52c3.043,0,5.52-2.477,5.52-5.52C102.146,89.918,99.67,87.441,96.627,87.441z"/>
		</g>
		<g>
			<path fill="#002453" d="M105.502,116.773H102.6v-9.117h2.902V116.773z M90.658,116.773h-2.906v-9.117h2.906V116.773z
				 M96.627,101.391c-4.645,0-8.426-3.781-8.426-8.426c0-4.648,3.781-8.43,8.426-8.43s8.422,3.781,8.422,8.43
				C105.049,97.609,101.271,101.391,96.627,101.391z M96.627,87.441c-3.047,0-5.523,2.477-5.523,5.523
				c0,3.043,2.477,5.52,5.523,5.52c3.043,0,5.52-2.477,5.52-5.52C102.146,89.918,99.67,87.441,96.627,87.441z"/>
		</g>
	</g>
</g>
</svg>
