<?xml version="1.0" encoding="utf-8"?>
<!-- Generator: Adobe Illustrator 16.0.0, SVG Export Plug-In . SVG Version: 6.00 Build 0)  -->
<!DOCTYPE svg PUBLIC "-//W3C//DTD SVG 1.1//EN" "http://www.w3.org/Graphics/SVG/1.1/DTD/svg11.dtd">
<svg version="1.1" id="Layer_1" xmlns="http://www.w3.org/2000/svg" xmlns:xlink="http://www.w3.org/1999/xlink" x="0px" y="0px"
	 width="367px" height="162px" viewBox="0 0 367 162" enable-background="new 0 0 367 162" xml:space="preserve">
<g>
	<g>
		<path fill="#002453" d="M149.82,37.188c0.023,0.07,2,9.242,7.738,12.125l1.48,0.738v-3.152c0-6.285-2.988-12.121-8.059-15.824
			l-2.82-1.902l0.043,0.203c-2.719-1.375-5.707-2.082-8.758-2.082c-10.809,0-19.598,8.793-19.598,19.605v3.145l1.016,0.008
			c18.52,0,26.41-12.688,26.734-13.227l1.594-2.699L149.82,37.188z M237.652,37.453c0.703,3.48,3.289,10.621,8.09,12.848
			l1.449,0.668v-3.812c0-6.434-3.129-12.359-8.422-16.047l-2.73-1.75l0.039,0.172c-2.656-1.297-5.551-1.977-8.469-1.977
			c-10.812,0-19.605,8.797-19.605,19.602v3.688l1.012,0.012c18.602,0,26.359-13.668,26.414-13.809l1.59-2.797L237.652,37.453z
			 M193.98,43.254c0.648,2.34,3.113,9.766,8.957,11.496l1.312,0.383v-1.359c0-11.93-9.109-21.035-20.312-21.035
			s-20.328,9.105-20.328,20.312v1.988c0,0,1.016,0.027,1.023,0.027c19.043,0,26.844-11.699,27.16-12.199l1.555-2.387L193.98,43.254z
			 M120,66.156c1.203,9.809,9.562,17.203,19.445,17.203c7.246,0,13.867-4.086,17.27-10.664L157,72.156l-0.344-0.512
			c-0.75-1.109-1.133-2.242-1.133-3.367v-7.434c0-2.883,2.043-5.418,4.875-6.016l0.809-0.172v-2.109l-1.242-0.219
			c-6.168-0.684-9.465-6.117-11.215-10.516l-0.613-1.539l-1.098,1.242c-3.672,4.129-11.867,11.055-25.5,11.055
			c-0.684,0-1.367-0.023-2.059-0.055c-0.512-0.023-0.785-0.484-0.926-0.863l-0.285-0.777l-0.824,0.117
			c-1.789,0.273-3.078,1.715-3.078,3.434v7.176c0,1.969,1.594,3.578,3.566,3.578l1.906-0.309L120,66.156z M234.848,41.953
			c-3.648,4.277-11.77,11.426-25.199,11.426l-1.047,1.934c2.277,1.02,3.695,3.137,3.695,5.531v7.434c0,1.48-0.551,2.91-1.531,4.035
			l-0.469,0.547l0.355,0.629c3.5,6.25,9.996,10.137,16.957,10.137c9.879,0,18.246-7.387,19.445-17.191l0.152-1.273
			c0,0,1.34,0.223,1.387,0.223c2.496,0,4.047-1.586,4.047-3.516v-7.18c0-1.562-1.078-2.867-2.727-3.305l-0.973-0.258l-0.281,0.961
			c-0.09,0.789-0.594,1.23-1.176,1.23c-5.934-0.895-9.184-6.512-10.895-11.055l-0.617-1.609L234.848,41.953z M163.781,72.996
			c1.227,10.16,9.891,17.832,20.156,17.832c10.254,0,18.918-7.66,20.164-17.824l0.156-1.273c0,0,1.344,0.234,1.387,0.234
			c2.617,0,4.23-1.656,4.23-3.688v-7.434c0-2.059-1.68-3.734-3.738-3.734l-1.969,0.234l0.016,0.266l-0.777-0.246
			c-5.934-1.059-9.117-6.582-10.48-9.762l-0.602-1.43l-1.074,1.113c-3.699,3.832-11.949,10.27-25.664,10.27l-2.078-0.043
			l-1.254-0.359h-0.121c-2.566,0-4.199,1.66-4.199,3.691v7.434c0,2.066,1.676,3.734,3.742,3.734l1.945-0.312L163.781,72.996z
			 M207.402,74.215l-0.332,0.121l-0.707,0.105l-0.176,0.723c-1.332,6.426-5.414,11.957-11.203,15.195l-0.52,0.293v8.926l1.68-1.398
			c3.848-3.207,8.656-4.977,13.543-4.977h7.637v-9.879l-0.52-0.297c-3.379-1.914-6.219-4.805-8.203-8.332l-0.371-0.656
			L207.402,74.215z M158.621,74.492c-1.98,3.539-4.895,6.438-8.43,8.426l-0.52,0.293v9.727h7.629c5.223,0,10.309,2.035,14.32,5.727
			l1.719,1.574v-9.609l-0.516-0.301c-5.75-3.23-9.801-8.754-11.129-15.148l-0.148-0.703l-0.703-0.105l-0.805-0.254L158.621,74.492z
			 M183.91,127.637l13.109-24.477h-4.961V91.727l-1.328,0.41c-2.367,0.75-4.582,1.109-6.793,1.109c-2.223,0-4.457-0.367-6.844-1.117
			l-1.328-0.422v11.453h-4.965L183.91,127.637z M121.539,95.355c-10.395,0-18.859,8.465-18.859,18.859v26.363h40.77v-17.867
			c0-12.117,9.848-21.973,21.957-21.973h5.438l-2.598-1.848c-3.223-2.312-7.016-3.535-10.945-3.535h-10.043V84.398l-1.32,0.406
			c-2.113,0.652-4.293,0.977-6.492,0.977c-2.121,0-4.258-0.344-6.535-1.07l-1.328-0.41v11.055H121.539z M209.688,95.621
			c-3.641,0-7.246,1.125-10.414,3.254l-2.789,1.863h5.918c12.109,0,21.965,9.855,21.965,21.973v18.133h39.945v-26.371
			c0-10.395-8.457-18.852-18.855-18.852h-10.051V84.594l-1.32,0.402c-2.27,0.703-4.387,1.043-6.477,1.043
			c-2.156,0-4.367-0.34-6.543-1.023l-1.32-0.414v11.02H209.688z M165.406,103.16c-10.773,0-19.543,8.766-19.543,19.551v26.875h76.09
			v-26.875c0-10.785-8.773-19.551-19.551-19.551h-2.66l-15.832,29.582l-15.848-29.582H165.406z M143.449,152.008v-9.012h-43.18
			v-28.781c0-11.727,9.543-21.27,21.27-21.27h7.633v-9.707l-0.52-0.289c-5.531-3.125-9.449-8.457-10.738-14.629l-0.148-0.691
			l-0.703-0.109c-2.91-0.418-5.113-2.965-5.113-5.918v-7.176c0-2.797,1.977-5.25,4.688-5.84l0.801-0.18v-0.824
			c0-12.824,9.871-22.703,22.008-22.703c10.824,0,20.148,8.129,21.695,18.902l0.512,3.57l1.438-3.305
			c3.609-8.336,11.801-13.719,20.848-13.719c8.559,0,16.309,4.816,20.223,12.586l1.32,2.602l0.594-2.859
			c2.121-10.148,11.176-17.508,21.535-17.508c12.133,0,22.008,9.875,22.008,22.008v0.812l0.785,0.871
			c2.691,0.629,4.645,3.09,4.645,5.848v7.18c0,2.926-2.172,5.469-5.066,5.906l-0.695,0.105l-0.148,0.699
			c-1.297,6.191-5.234,11.527-10.789,14.641l-0.516,0.297v9.699h7.625c11.73,0,21.27,9.539,21.27,21.258v28.781h-42.359v8.754
			H143.449z"/>
		<path fill="#002453" d="M224.367,73.832c-0.656,0-1.199-0.535-1.199-1.191c0-0.668,0.543-1.215,1.199-1.215h6.566
			c0.656,0,1.199,0.547,1.199,1.215c0,0.656-0.543,1.191-1.199,1.191H224.367z"/>
		<path fill="#002453" d="M135.539,73.582c-0.668,0-1.211-0.547-1.211-1.203c0-0.668,0.543-1.215,1.211-1.215h6.562
			c0.656,0,1.207,0.547,1.207,1.215c0,0.656-0.551,1.203-1.207,1.203H135.539z"/>
		<path fill="#002453" d="M180.621,83.113c-0.664,0-1.219-0.543-1.219-1.203c0-0.668,0.555-1.215,1.219-1.215h6.566
			c0.672,0,1.207,0.535,1.207,1.215c0,0.66-0.543,1.203-1.207,1.203H180.621z"/>
		<g opacity="0.72">
			<g>
				<defs>
					<rect id="SVGID_1_" x="-36.445" y="-28.93" width="439.887" height="194.953"/>
				</defs>
				<clipPath id="SVGID_2_">
					<use xlink:href="#SVGID_1_"  overflow="visible"/>
				</clipPath>
			</g>
		</g>
	</g>
</g>
</svg>
