<?xml version="1.0" encoding="utf-8"?>
<!-- Generator: Adobe Illustrator 16.0.0, SVG Export Plug-In . SVG Version: 6.00 Build 0)  -->
<!DOCTYPE svg PUBLIC "-//W3C//DTD SVG 1.1//EN" "http://www.w3.org/Graphics/SVG/1.1/DTD/svg11.dtd">
<svg version="1.1" id="Layer_1" xmlns="http://www.w3.org/2000/svg" xmlns:xlink="http://www.w3.org/1999/xlink" x="0px" y="0px"
	 width="268px" height="44px" viewBox="0 0 268 44" enable-background="new 0 0 268 44" xml:space="preserve">
<g>
	<g>
		<path fill="#182751" d="M249.819,5.064c0.121-0.733-0.905-1.128-3.08-1.189c-1.587-0.065-2.809-0.118-3.664-0.163
			c-0.855-0.049-1.914-0.187-3.16-0.436c-1.019-0.183-1.771-0.098-2.275,0.256c-0.502,0.351-0.343,0.753,0.483,1.214
			c1.067,0.667,1.894,1.1,2.473,1.283c0.581,0.183,1.164,0.306,1.742,0.367c0.771,0.028,1.539,0.044,2.317,0.044
			c0.781,0,1.711-0.044,2.777-0.134C248.898,6.212,249.697,5.801,249.819,5.064 M252.254,8.599
			c-1.507-0.122-2.744-0.016-3.722,0.322c-1.038,0.367-2.688,0.57-4.952,0.619c-2.265,0.044-3.974,0.049-5.139,0.02
			c-1.315-0.028-2.398-0.069-3.258-0.114c-0.855-0.049-1.679-0.114-2.476-0.208c-0.945-0.119-1.792,0-2.518,0.37
			c-0.74,0.367-0.248,0.9,1.458,1.604c2.513,0.945,4.17,1.259,4.985,0.937c0.806-0.317,1.868-0.542,3.184-0.664
			c1.621-0.155,4.182-0.228,7.684-0.228s5.926,0.029,7.269,0.094c0.978,0,1.602-0.293,1.857-0.872c0.262-0.582-0.204-1.075-1.4-1.47
			C254.737,8.855,253.748,8.717,252.254,8.599 M260.088,22.448c-1.033,0.123-2.271,0.232-3.713,0.322
			c-1.434,0.094-2.599,0.078-3.485-0.045c-0.18-0.028-0.352-0.045-0.506-0.045h-0.455c0.154-0.337,0.26-0.68,0.325-1.03
			c0.057-0.354,0.09-0.729,0.09-1.128c0-2.998-1.157-4.854-3.467-5.571c-2.309-0.721-3.465-1.095-3.465-1.124
			c0-0.338,0.054-0.607,0.164-0.807c0.105-0.195,0.052-0.432-0.164-0.708c-0.305-0.338-1.059-0.566-2.269-0.688
			c-1.209-0.122-1.812,0.154-1.812,0.826c0,0.212,0.18,0.395,0.529,0.55c0.351,0.155,0.358,0.411,0.017,0.782
			c0,0.029-1.182,0.411-3.551,1.145c-2.37,0.733-3.559,2.598-3.559,5.595c0,2.232,0.928,3.983,2.777,5.252
			c1.856,1.271,3.827,1.905,5.944,1.905c1.435,0,2.839-0.296,4.215-0.896c1.376-0.598,2.496-1.43,3.352-2.5
			c0.061,0.028,0.105,0.045,0.134,0.045c0.037,0,0.062,0.017,0.094,0.049c2.171,0.852,3.624,1.181,4.357,0.981
			c0.733-0.195,1.254-0.326,1.56-0.387c0.032,0,0.229-0.069,0.595-0.208c0.37-0.135,0.827-0.252,1.376-0.342
			c0.062,0,0.18-0.017,0.347-0.045c0.167-0.032,0.358-0.065,0.569-0.094l0.05,4.085c0,0.977,0.098,2.138,0.301,3.485
			c0.195,1.344,0.513,1.999,0.937,1.971c0.554-0.028,1.034-0.799,1.446-2.292c0.41-1.5,0.614-3.104,0.614-4.817l-0.179-21.147
			c0-1.161,0.105-2.032,0.317-2.614c0.22-0.578-0.118-1.027-1.011-1.328c-0.606-0.276-1.425-0.521-2.451-0.737
			c-1.025-0.211-1.702-0.338-2.035-0.366c-1.467-0.09-2.257,0.077-2.367,0.504c-0.108,0.432,0.286,0.855,1.17,1.287
			c1.132,0.427,1.931,0.831,2.386,1.217c0.464,0.379,0.685,1.059,0.685,2.036l0.094,8.397c-1.039,0.118-2.276,0.228-3.714,0.318
			c-1.438,0.093-2.582,0.077-3.44-0.045c-1.922-0.155-2.819,0.037-2.681,0.57c0.14,0.542,0.497,0.917,1.075,1.128
			c2.171,0.855,3.624,1.185,4.357,0.985c0.733-0.195,1.254-0.326,1.56-0.391c0.032,0,0.229-0.069,0.595-0.204
			c0.37-0.139,0.827-0.252,1.376-0.346c0.062,0,0.171-0.016,0.321-0.045c0.155-0.028,0.339-0.061,0.551-0.094L260.088,22.448z
			 M262.479,37.678c-1.07,0.061-1.82,0.248-2.247,0.55c-0.461,0.305-0.989,0.497-1.585,0.577c-0.595,0.074-1.155,0.11-1.678,0.11
			l-8.942,0.094c-0.366,0-0.708-0.11-1.029-0.321c-0.321-0.212-0.477-0.534-0.477-0.966v-4.679c0-0.851,0.073-1.519,0.219-1.995
			c0.155-0.473-0.373-0.785-1.596-0.937c-0.614-0.094-1.25-0.155-1.906-0.187c-0.659-0.029-1.343-0.017-2.044,0.048
			c-1.93,0.213-2.684,0.525-2.271,0.941c0.415,0.415,0.956,0.692,1.629,0.847c0.978,0.183,1.661,0.403,2.044,0.663
			c0.383,0.261,0.57,0.823,0.57,1.679v3.437c0,1.47,0.492,2.407,1.465,2.822c0.982,0.41,2.086,0.618,3.308,0.618l16.874-0.183
			c1.531,0,2.403-0.412,2.614-1.238c0.22-0.826-0.528-1.421-2.248-1.788C264.445,37.649,263.55,37.616,262.479,37.678
			 M247.318,24.125c-1.055,0.994-2.33,1.491-3.828,1.491c-1.502,0-2.752-0.513-3.767-1.539c-1.006-1.022-1.51-2.208-1.51-3.555
			c0-1.438,0.504-2.643,1.51-3.62c1.015-0.982,2.265-1.47,3.767-1.47c1.523,0,2.811,0.488,3.852,1.47
			c1.039,0.977,1.557,2.183,1.557,3.62C248.898,21.926,248.373,23.128,247.318,24.125 M207.237,4.93
			c0.139-0.705-0.881-1.087-3.051-1.148c-1.588-0.061-2.842-0.118-3.759-0.163c-0.916-0.041-2.007-0.187-3.253-0.431
			c-1.01-0.216-1.771-0.139-2.276,0.228c-0.501,0.366-0.342,0.794,0.485,1.283c1.066,0.672,1.893,1.096,2.476,1.262
			c0.578,0.171,1.16,0.281,1.742,0.346c0.766,0.061,1.572,0.082,2.431,0.065c0.855-0.012,1.805-0.065,2.847-0.159
			C206.312,6.058,207.102,5.634,207.237,4.93 M198.778,11.009c-0.154,0.102-0.231,0.232-0.231,0.387c0,0.273,0.184,0.477,0.55,0.595
			c0.366,0.122,0.333,0.383-0.089,0.782c0,0.061-1.19,0.439-3.561,1.144c-2.369,0.704-3.55,2.541-3.55,5.505
			c0,1.865,0.732,3.375,2.199,4.541c1.47,1.164,3.135,1.897,5,2.203v4.129c-1.043,0.09-2.061,0.167-3.07,0.228
			c-1.011,0.062-1.882,0.09-2.614,0.09c-0.921,0-1.76-0.037-2.524-0.114c-0.766-0.077-1.499-0.142-2.199-0.203
			c-1.874-0.154-2.81-0.009-2.826,0.437c-0.017,0.443,0.586,0.956,1.816,1.534c2.809,1.377,4.752,1.89,5.823,1.539
			c1.066-0.354,2.247-0.64,3.534-0.851c2.231-0.155,5.375-0.53,9.447-1.128c4.063-0.591,7.306-1.092,9.725-1.486l0.045,4.817
			c0,1.678,0.085,3.445,0.248,5.298c0.171,1.849,0.497,2.756,0.989,2.728c0.643-0.028,1.148-1.062,1.515-3.094
			c0.367-2.037,0.55-4.55,0.55-7.546l-0.09-10.14h6.743c1.557,0,2.419-0.428,2.59-1.283c0.164-0.854-0.562-1.437-2.178-1.743
			c-0.677-0.065-1.453-0.094-2.342-0.094c-0.888,0-1.467,0.123-1.743,0.367c-0.31,0.338-0.773,0.578-1.4,0.708
			c-0.627,0.139-1.181,0.24-1.67,0.301l-0.093-15.091c0-1.128,0.093-1.991,0.296-2.589c0.2-0.599-0.146-1.051-1.029-1.353
			c-0.583-0.248-1.385-0.476-2.411-0.688c-1.025-0.216-1.705-0.338-2.04-0.367c-1.498-0.094-2.3,0.074-2.41,0.501
			c-0.106,0.431,0.284,0.843,1.173,1.242c1.132,0.457,1.93,0.872,2.406,1.238c0.477,0.366,0.713,1.038,0.713,2.015l0.139,22.934
			c-1.319,0.216-3.34,0.484-6.057,0.802c-2.724,0.322-5.305,0.591-7.748,0.807v-3.945c1.86-0.277,3.543-1.002,5.041-2.183
			c1.499-1.173,2.248-2.696,2.248-4.561c0-2.936-1.14-4.76-3.421-5.477c-2.271-0.725-3.412-1.1-3.412-1.128
			c0-0.338,0.057-0.594,0.183-0.778c0.122-0.187,0.077-0.432-0.134-0.737c-0.131-0.155-0.31-0.281-0.554-0.387
			c-0.245-0.109-0.538-0.179-0.871-0.208c1.894-0.028,3.893-0.028,5.985,0c2.094,0.029,3.616,0.073,4.564,0.138
			c0.974,0.029,1.597-0.252,1.853-0.847c0.262-0.603-0.202-1.099-1.393-1.494c-0.497-0.184-1.486-0.338-2.979-0.457
			c-1.507-0.122-2.745-0.032-3.718,0.273c-1.043,0.306-2.632,0.485-4.77,0.529c-2.146,0.041-3.795,0.049-4.955,0.021
			c-1.315-0.061-2.419-0.11-3.303-0.159c-0.888-0.045-1.73-0.098-2.524-0.163c-0.949-0.118-1.787-0.016-2.521,0.322
			c-0.738,0.338-0.249,0.888,1.47,1.653c2.504,1.01,4.161,1.356,4.972,1.03c0.811-0.322,1.87-0.542,3.188-0.664
			c0.277-0.029,0.57-0.054,0.896-0.07c0.317-0.016,0.676-0.041,1.074-0.069C199.113,10.818,198.926,10.9,198.778,11.009
			 M204.65,22.863c-1.074,0.944-2.361,1.421-3.856,1.421c-1.47,0-2.748-0.48-3.831-1.441c-1.083-0.965-1.629-2.105-1.629-3.42
			c0-1.531,0.546-2.782,1.629-3.763c1.083-0.978,2.361-1.466,3.831-1.466c1.561,0,2.855,0.505,3.897,1.515
			c1.043,1.006,1.564,2.248,1.564,3.714C206.256,20.771,205.718,21.915,204.65,22.863 M139.904,19.581
			c-1.177,1.209-2.654,1.812-4.426,1.812c-1.743,0-3.221-0.615-4.427-1.856c-1.213-1.238-1.808-2.619-1.808-4.15
			c0-1.808,0.595-3.282,1.808-4.426c1.206-1.148,2.684-1.723,4.427-1.723c1.837,0,3.326,0.619,4.471,1.856
			c1.145,1.242,1.723,2.667,1.723,4.292C141.672,16.975,141.077,18.376,139.904,19.581 M155.868,37.678
			c-1.084,0.061-1.845,0.248-2.273,0.55c-0.455,0.305-0.985,0.497-1.58,0.577c-0.598,0.074-1.156,0.11-1.678,0.11l-9.08,0.094
			c-0.367,0-0.709-0.11-1.035-0.321c-0.317-0.212-0.48-0.534-0.48-0.966v-6.006c0-0.827,0.078-1.479,0.233-1.95
			c0.15-0.473-0.384-0.802-1.604-0.986c-0.615-0.094-1.251-0.154-1.906-0.183c-0.659-0.028-1.34-0.017-2.04,0.045
			c-1.958,0.212-2.72,0.529-2.292,0.944c0.428,0.412,0.965,0.693,1.604,0.844c0.977,0.183,1.666,0.407,2.064,0.663
			c0.399,0.265,0.595,0.835,0.595,1.723v4.724c0,1.47,0.488,2.407,1.471,2.822c0.973,0.41,2.076,0.618,3.302,0.618l17.018-0.183
			c1.527,0,2.406-0.412,2.635-1.238c0.228-0.826-0.514-1.421-2.224-1.788C157.863,37.649,156.951,37.616,155.868,37.678
			 M156.67,5.569c0-1.161,0.094-2.032,0.297-2.614c0.2-0.578-0.146-1.027-1.03-1.328c-0.582-0.276-1.393-0.521-2.431-0.737
			c-1.043-0.211-1.73-0.338-2.065-0.366c-1.47-0.09-2.255,0.077-2.365,0.504c-0.105,0.432,0.285,0.855,1.172,1.287
			c1.133,0.427,1.932,0.831,2.407,1.217c0.477,0.379,0.713,1.059,0.713,2.036l0.139,22.662c0,0.978,0.098,2.138,0.293,3.485
			c0.203,1.348,0.529,2,0.993,1.972c0.514-0.028,0.989-0.787,1.418-2.273c0.427-1.478,0.643-3.095,0.643-4.837L156.67,5.569z
			 M141.46,8.872c-2.492-0.888-3.733-1.344-3.733-1.376c0-0.428,0.069-0.749,0.207-0.961c0.135-0.212,0.114-0.477-0.068-0.782
			c-0.31-0.521-1.21-0.823-2.709-0.917c-1.498-0.089-2.248,0.249-2.248,1.01c0,0.244,0.196,0.46,0.599,0.644
			c0.395,0.183,0.379,0.521-0.044,1.005c0,0.033-1.303,0.468-3.901,1.312c-2.602,0.838-3.901,3.03-3.901,6.58
			c0,2.598,1.059,4.606,3.168,6.031c2.109,1.425,4.325,2.134,6.65,2.134c2.35,0,4.564-0.709,6.625-2.134
			c2.064-1.425,3.1-3.433,3.1-6.031C145.203,11.93,143.957,9.759,141.46,8.872 M109.571,12.105
			c-1.697,0.077-3.033,0.053-4.015-0.065h-0.184l0.045-4.728c0-0.794,0.029-1.393,0.07-1.788c0.048-0.395-0.326-0.732-1.124-1.009
			c-0.701-0.245-1.397-0.428-2.085-0.55c-0.688-0.123-1.247-0.184-1.678-0.184c-1.494,0.094-2.182,0.322-2.06,0.688
			c0.122,0.367,0.444,0.66,0.961,0.872c0.765,0.244,1.393,0.488,1.881,0.732c0.493,0.249,0.733,0.672,0.733,1.287l-0.045,3.852
			l-11.007,0.183l-0.049-2.797c0-0.615,0.033-1.112,0.094-1.49c0.061-0.383-0.334-0.729-1.193-1.035
			c-0.672-0.211-1.319-0.358-1.946-0.431c-0.631-0.082-1.222-0.135-1.767-0.163c-1.588,0.089-2.297,0.33-2.134,0.712
			c0.171,0.379,0.423,0.635,0.757,0.753c0.888,0.305,1.592,0.619,2.109,0.945c0.521,0.321,0.782,0.753,0.782,1.303l0.09,10.872
			c0.032,1.495,0.163,2.549,0.391,3.164c0.229,0.611,0.586,0.917,1.075,0.917c0.615,0,1.043-0.257,1.287-0.778
			c0.245-0.521,0.399-0.92,0.456-1.193l11.101-0.183c0.032,0.244,0.139,0.558,0.322,0.941c0.184,0.379,0.521,0.574,1.01,0.574
			c0.705,0,1.193-0.424,1.47-1.267c0.273-0.839,0.407-1.93,0.407-3.278l0.048-4.813c1.621,0.485,2.712,0.655,3.283,0.505
			c0.566-0.155,0.969-0.26,1.213-0.322c0.033,0,0.26-0.065,0.684-0.183c0.432-0.122,0.92-0.232,1.47-0.321
			c0.094-0.029,0.301-0.065,0.624-0.094c0.317-0.029,0.635-0.061,0.937-0.09l0.089,5.55c0,0.978,0.094,2.138,0.277,3.485
			c0.187,1.348,0.505,2,0.965,1.972c0.549-0.029,1.034-0.795,1.445-2.293c0.416-1.499,0.619-3.12,0.619-4.862l-0.187-11.927
			c0-1.128,0.114-1.987,0.326-2.565c0.211-0.583-0.123-1.026-1.01-1.332c-0.611-0.277-1.433-0.521-2.476-0.733
			c-1.042-0.216-1.727-0.338-2.068-0.367c-1.495-0.094-2.296,0.074-2.403,0.501c-0.109,0.431,0.293,0.843,1.214,1.242
			c1.132,0.457,1.934,0.872,2.411,1.238c0.473,0.366,0.708,1.038,0.708,2.015l0.09,6.238
			C112.605,11.93,111.27,12.027,109.571,12.105 M102.026,19.882l-10.917,0.183l-0.045-6.604l11.007-0.183L102.026,19.882z
			 M116.885,28.137c0-0.794,0.102-1.376,0.302-1.743c0.195-0.366-0.24-0.716-1.307-1.055c-0.676-0.244-1.287-0.428-1.837-0.55
			c-0.549-0.122-1.055-0.184-1.514-0.184c-1.495,0.09-2.195,0.306-2.085,0.644c0.11,0.338,0.419,0.611,0.941,0.823
			c0.793,0.248,1.36,0.48,1.693,0.712c0.338,0.229,0.505,0.647,0.505,1.263v2.614l-14.082,0.09l-0.045-1.56
			c0-0.611,0.033-1.108,0.094-1.486c0.057-0.387-0.35-0.729-1.238-1.034c-0.676-0.155-1.254-0.285-1.747-0.396
			c-0.484-0.102-1.006-0.175-1.56-0.203c-1.556,0.122-2.248,0.366-2.085,0.737c0.167,0.366,0.424,0.61,0.758,0.732
			c0.887,0.212,1.514,0.464,1.881,0.754c0.367,0.293,0.545,0.757,0.545,1.4l0.094,8.714c0.037,1.499,0.171,2.554,0.412,3.168
			c0.248,0.611,0.615,0.916,1.104,0.916c0.615,0,1.05-0.268,1.307-0.806c0.26-0.533,0.407-0.937,0.436-1.213l14.175-0.045
			c0.033,0.211,0.135,0.521,0.318,0.915c0.187,0.4,0.538,0.6,1.059,0.6c0.7,0,1.188-0.424,1.466-1.267
			c0.277-0.835,0.411-1.946,0.411-3.323V28.137z M99.55,38.41l-0.049-5.595l14.082-0.089v5.595L99.55,38.41z M68.114,15.432
			l-14.676,0.183l-0.416-10.18l15.552-0.093L68.114,15.432z M77.13,22.448c-2.647-0.183-4.822,0.078-6.54,0.782
			c-0.64,0.245-3.742,0.383-9.309,0.411c-5.566,0.028-9.007,0.05-10.318,0.05c-2.203,0-3.779-0.041-4.724-0.118
			c-0.949-0.078-2.093-0.131-3.445-0.159c-1.401-0.028-2.366,0.146-2.887,0.525c-0.521,0.383-0.045,0.851,1.421,1.4
			c3.424,1.316,5.688,1.788,6.792,1.422c1.099-0.367,2.264-0.611,3.485-0.733c0.061,0,0.668-0.062,1.833-0.184
			s2.952-0.228,5.367-0.321l0.089,9.635c0,1.678,0.094,3.445,0.277,5.298c0.184,1.849,0.521,2.756,1.01,2.728
			c0.644-0.028,1.149-1.062,1.515-3.094c0.367-2.037,0.546-4.55,0.546-7.546l-0.089-7.11h0.049c3.363-0.033,6.075-0.048,8.144-0.048
			c2.061,0,3.869,0.063,5.432,0.183c1.254,0,2.436-0.045,3.555-0.135c1.112-0.094,1.69-0.505,1.719-1.242
			C81.08,23.213,79.776,22.636,77.13,22.448 M72.104,15.57c-0.428-0.123-0.778-0.2-1.05-0.229l1.238-9.312
			c0.061-0.705,0.375-1.246,0.941-1.625c0.562-0.387,0.264-0.823-0.896-1.312c-0.762-0.338-1.47-0.452-2.113-0.346
			c-0.64,0.11-1.299,0.285-1.971,0.529c-0.366,0.123-2.858,0.208-7.476,0.256c-4.618,0.045-7.11,0.065-7.477,0.065
			c-0.55,0-1.213-0.094-1.995-0.277c-0.778-0.184-1.657-0.256-2.639-0.228c-1.161,0.061-1.906,0.301-2.248,0.712
			c-0.334,0.412-0.228,0.692,0.326,0.847c0.733,0.183,1.344,0.366,1.833,0.55c0.489,0.183,0.749,0.566,0.782,1.148l0.916,10.595
			c0.061,1.039,0.22,1.727,0.484,2.065c0.257,0.338,0.554,0.504,0.888,0.504c0.371,0,0.708-0.146,1.01-0.439
			c0.309-0.29,0.521-0.77,0.643-1.441c0.855-0.028,3.25-0.094,7.183-0.183c3.926-0.094,7.281-0.139,10.066-0.139
			c0.639,0,1.169-0.077,1.58-0.228c0.415-0.155,0.619-0.415,0.619-0.782S72.536,15.692,72.104,15.57 M26.024,12.105
			c-1.694,0.077-3.03,0.053-4.011-0.065h-0.183l0.048-4.728c0-0.794,0.017-1.393,0.065-1.788c0.049-0.395-0.326-0.732-1.124-1.009
			c-0.704-0.245-1.4-0.428-2.088-0.55c-0.681-0.123-1.242-0.184-1.674-0.184c-1.494,0.094-2.183,0.322-2.061,0.688
			c0.122,0.367,0.44,0.66,0.961,0.872c0.766,0.244,1.393,0.488,1.881,0.732c0.489,0.249,0.733,0.672,0.733,1.287l-0.045,3.852
			L7.521,11.396L7.472,8.599c0-0.615,0.033-1.112,0.094-1.49c0.061-0.383-0.338-0.729-1.193-1.035
			c-0.672-0.211-1.32-0.358-1.951-0.431C3.799,5.561,3.208,5.508,2.659,5.479c-1.588,0.089-2.305,0.33-2.134,0.712
			c0.171,0.379,0.419,0.635,0.758,0.753C2.17,7.25,2.871,7.564,3.392,7.89c0.521,0.321,0.783,0.753,0.783,1.303l0.089,10.872
			c0.028,1.495,0.159,2.549,0.387,3.164c0.232,0.611,0.59,0.917,1.079,0.917c0.615,0,1.042-0.257,1.287-0.778
			c0.244-0.521,0.395-0.92,0.456-1.193l11.101-0.183c0.033,0.244,0.138,0.558,0.322,0.941c0.183,0.379,0.521,0.574,1.01,0.574
			c0.704,0,1.193-0.424,1.47-1.267c0.272-0.839,0.412-1.93,0.412-3.278l0.044-4.813c1.621,0.485,2.712,0.655,3.278,0.505
			c0.566-0.155,0.973-0.26,1.217-0.322c0.028,0,0.261-0.065,0.688-0.183c0.427-0.122,0.916-0.232,1.47-0.321
			c0.089-0.029,0.293-0.065,0.615-0.094c0.322-0.029,0.639-0.061,0.94-0.09l0.094,5.55c0,0.978,0.094,2.138,0.273,3.485
			c0.188,1.348,0.505,2,0.965,1.972c0.55-0.029,1.03-0.795,1.446-2.293c0.407-1.499,0.619-3.12,0.619-4.862L33.253,5.569
			c0-1.128,0.109-1.987,0.321-2.565c0.212-0.583-0.122-1.026-1.01-1.332c-0.611-0.277-1.442-0.521-2.476-0.733
			c-1.043-0.216-1.727-0.338-2.069-0.367c-1.494-0.094-2.297,0.074-2.407,0.501c-0.106,0.431,0.297,0.843,1.217,1.242
			c1.132,0.457,1.935,0.872,2.403,1.238c0.48,0.366,0.717,1.038,0.717,2.015l0.089,6.238C29.062,11.93,27.727,12.027,26.024,12.105
			 M18.483,19.882L7.566,20.065l-0.044-6.604l11.006-0.183L18.483,19.882z M33.346,28.137c0-0.794,0.098-1.376,0.293-1.743
			c0.2-0.366-0.236-0.716-1.303-1.055c-0.676-0.244-1.287-0.428-1.836-0.55s-1.055-0.184-1.511-0.184
			c-1.499,0.09-2.199,0.306-2.093,0.644c0.11,0.338,0.423,0.611,0.945,0.823c0.794,0.248,1.36,0.48,1.694,0.712
			c0.342,0.229,0.505,0.647,0.505,1.263v2.614l-14.081,0.09l-0.045-1.56c0-0.611,0.029-1.108,0.094-1.486
			c0.061-0.387-0.351-0.729-1.238-1.034c-0.676-0.155-1.259-0.285-1.743-0.396c-0.488-0.102-1.01-0.175-1.563-0.203
			c-1.555,0.122-2.256,0.366-2.085,0.737c0.171,0.366,0.419,0.61,0.757,0.732c0.888,0.212,1.515,0.464,1.881,0.754
			c0.367,0.293,0.546,0.757,0.546,1.4l0.098,8.714c0.024,1.499,0.163,2.554,0.407,3.168c0.249,0.611,0.615,0.916,1.104,0.916
			c0.615,0,1.046-0.268,1.307-0.806c0.261-0.533,0.407-0.937,0.436-1.213l14.175-0.045c0.028,0.211,0.138,0.521,0.317,0.915
			c0.188,0.4,0.538,0.6,1.059,0.6c0.701,0,1.189-0.424,1.466-1.267c0.276-0.835,0.415-1.946,0.415-3.323V28.137z M16.007,38.41
			l-0.049-5.595l14.081-0.089v5.595L16.007,38.41z"/>
	</g>
</g>
</svg>
