<?xml version="1.0" encoding="utf-8"?>
<!-- Generator: Adobe Illustrator 16.0.0, SVG Export Plug-In . SVG Version: 6.00 Build 0)  -->
<!DOCTYPE svg PUBLIC "-//W3C//DTD SVG 1.1//EN" "http://www.w3.org/Graphics/SVG/1.1/DTD/svg11.dtd">
<svg version="1.1" id="Layer_1" xmlns="http://www.w3.org/2000/svg" xmlns:xlink="http://www.w3.org/1999/xlink" x="0px" y="0px"
	 width="356px" height="56px" viewBox="0 0 356 56" enable-background="new 0 0 356 56" xml:space="preserve">
<g>
	<g>
		<g>
			<path fill="#BEAC8A" d="M327.318,55.758H28.686C13.377,55.758,0.924,43.305,0.924,28S13.377,0.242,28.686,0.242h298.633
				c15.305,0,27.758,12.453,27.758,27.758S342.623,55.758,327.318,55.758z M28.686,1.418C14.025,1.418,2.1,13.344,2.1,28
				s11.926,26.582,26.586,26.582h298.633c14.66,0,26.582-11.926,26.582-26.582S341.979,1.418,327.318,1.418H28.686z"/>
		</g>
		<g>
			<path fill="#BEAC8A" d="M48.467,27.996c0-7.547-6.141-13.688-13.688-13.688c-7.551,0-13.691,6.141-13.691,13.688
				c0,7.555,6.141,13.691,13.691,13.691C42.326,41.688,48.467,35.551,48.467,27.996 M49.482,27.996
				c0,8.109-6.594,14.711-14.703,14.711s-14.703-6.602-14.703-14.711c0-8.102,6.594-14.703,14.703-14.703
				S49.482,19.895,49.482,27.996 M43.74,24.598c0.203,0.199,0.203,0.52,0,0.719l-8.605,8.605c-0.094,0.094-0.23,0.148-0.355,0.148
				c-0.129,0-0.258-0.055-0.359-0.148l-8.605-8.605c-0.199-0.199-0.199-0.52,0-0.719s0.52-0.199,0.715,0l8.25,8.246l8.246-8.246
				C43.221,24.398,43.541,24.398,43.74,24.598"/>
		</g>
	</g>
</g>
</svg>
