<?xml version="1.0" encoding="utf-8"?>
<!-- Generator: Adobe Illustrator 16.0.0, SVG Export Plug-In . SVG Version: 6.00 Build 0)  -->
<!DOCTYPE svg PUBLIC "-//W3C//DTD SVG 1.1//EN" "http://www.w3.org/Graphics/SVG/1.1/DTD/svg11.dtd">
<svg version="1.1" id="Layer_1" xmlns="http://www.w3.org/2000/svg" xmlns:xlink="http://www.w3.org/1999/xlink" x="0px" y="0px"
	 width="356px" height="56px" viewBox="0 0 356 56" enable-background="new 0 0 356 56" xml:space="preserve">
<g>
	<g>
		<path fill="#BEAC8A" d="M354.49,28c0-15.008-12.168-27.172-27.172-27.172H28.686C13.678,0.828,1.514,12.992,1.514,28
			s12.164,27.168,27.172,27.168h298.633C342.322,55.168,354.49,43.008,354.49,28"/>
	</g>
	<g>
		<path fill="#BEAC8A" d="M327.318,55.758H28.686C13.381,55.758,0.924,43.305,0.924,28c0-15.309,12.457-27.758,27.762-27.758
			h298.633c15.305,0,27.758,12.449,27.758,27.758C355.076,43.305,342.623,55.758,327.318,55.758z M28.686,1.418
			C14.029,1.418,2.1,13.34,2.1,28c0,14.656,11.93,26.582,26.586,26.582h298.633c14.66,0,26.582-11.926,26.582-26.582
			c0-14.66-11.922-26.582-26.582-26.582H28.686z"/>
	</g>
	<g>
		<path fill="#002453" d="M48.467,27.996c0-7.547-6.141-13.688-13.688-13.688c-7.551,0-13.691,6.141-13.691,13.688
			c0,7.555,6.141,13.691,13.691,13.691C42.326,41.688,48.467,35.551,48.467,27.996 M49.482,27.996
			c0,8.109-6.594,14.711-14.703,14.711s-14.707-6.602-14.707-14.711c0-8.102,6.598-14.703,14.707-14.703
			S49.482,19.895,49.482,27.996 M43.74,24.598c0.199,0.199,0.199,0.52,0,0.719l-8.605,8.605c-0.094,0.094-0.227,0.148-0.355,0.148
			c-0.133,0-0.258-0.055-0.359-0.148l-8.605-8.605c-0.199-0.199-0.199-0.52,0-0.719c0.195-0.199,0.516-0.199,0.715,0l8.25,8.246
			l8.246-8.246C43.225,24.398,43.545,24.398,43.74,24.598"/>
	</g>
</g>
</svg>
