<?xml version="1.0" encoding="utf-8"?>
<!-- Generator: Adobe Illustrator 16.0.0, SVG Export Plug-In . SVG Version: 6.00 Build 0)  -->
<!DOCTYPE svg PUBLIC "-//W3C//DTD SVG 1.1//EN" "http://www.w3.org/Graphics/SVG/1.1/DTD/svg11.dtd">
<svg version="1.1" id="Layer_1" xmlns="http://www.w3.org/2000/svg" xmlns:xlink="http://www.w3.org/1999/xlink" x="0px" y="0px"
	 width="58px" height="58px" viewBox="0 0 58 58" enable-background="new 0 0 58 58" xml:space="preserve">
<g>
	<path fill="#BEAC8A" d="M29,56.257c15.055,0,27.259-12.2,27.259-27.257C56.259,13.947,44.055,1.743,29,1.743
		C13.947,1.743,1.744,13.947,1.744,29C1.744,44.057,13.947,56.257,29,56.257"/>
	<path fill="#172852" d="M45.48,27.318c0.385,0.388,0.385,1.009,0,1.394C45.288,28.908,45.032,29,44.783,29
		c-0.256,0-0.504-0.092-0.696-0.288l-14.102-14.1v31.158c0,0.541-0.438,0.985-0.985,0.985c-0.545,0-0.983-0.444-0.983-0.985V14.612
		l-14.102,14.1c-0.387,0.389-1.009,0.389-1.396,0c-0.385-0.385-0.385-1.006,0-1.394l15.783-15.782c0.387-0.384,1.01-0.384,1.395,0
		L45.48,27.318z M29,55.632C14.315,55.632,2.367,43.688,2.367,29C2.367,14.316,14.315,2.368,29,2.368
		c14.686,0,26.63,11.948,26.63,26.632C55.63,43.688,43.686,55.632,29,55.632 M29,0.397C13.227,0.397,0.395,13.23,0.395,29
		c0,15.773,12.832,28.603,28.605,28.603c15.775,0,28.605-12.829,28.605-28.603C57.605,13.23,44.775,0.397,29,0.397"/>
</g>
</svg>
