<?xml version="1.0" encoding="utf-8"?>
<!-- Generator: Adobe Illustrator 16.0.0, SVG Export Plug-In . SVG Version: 6.00 Build 0)  -->
<!DOCTYPE svg PUBLIC "-//W3C//DTD SVG 1.1//EN" "http://www.w3.org/Graphics/SVG/1.1/DTD/svg11.dtd">
<svg version="1.1" id="Layer_1" xmlns="http://www.w3.org/2000/svg" xmlns:xlink="http://www.w3.org/1999/xlink" x="0px" y="0px"
	 width="58px" height="58px" viewBox="0 0 58 58" enable-background="new 0 0 58 58" xml:space="preserve">
<g>
	<path fill="#172852" d="M28.975,56.28c15.055,0,27.259-12.2,27.259-27.257c0-15.053-12.204-27.257-27.259-27.257
		c-15.053,0-27.255,12.205-27.255,27.257C1.719,44.08,13.922,56.28,28.975,56.28"/>
	<path fill="#BEAC8A" d="M45.455,27.341c0.385,0.388,0.385,1.009,0,1.397c-0.192,0.192-0.448,0.285-0.697,0.285
		c-0.256,0-0.504-0.092-0.696-0.285L29.96,14.636v31.158c0,0.545-0.438,0.985-0.985,0.985c-0.545,0-0.983-0.44-0.983-0.985V14.636
		L13.89,28.739c-0.387,0.385-1.009,0.385-1.396,0c-0.384-0.388-0.384-1.009,0-1.397L28.278,11.56c0.386-0.384,1.009-0.384,1.394,0
		L45.455,27.341z M28.975,55.655c-14.684,0-26.632-11.944-26.632-26.632c0-14.684,11.948-26.632,26.632-26.632
		c14.686,0,26.63,11.948,26.63,26.632C55.604,43.711,43.66,55.655,28.975,55.655 M28.975,0.42C13.201,0.42,0.37,13.254,0.37,29.023
		c0,15.777,12.832,28.607,28.605,28.607c15.775,0,28.605-12.83,28.605-28.607C57.58,13.254,44.75,0.42,28.975,0.42"/>
</g>
</svg>
